  0
SECTION
  2
HEADER
  9
$ACADVER
  1
AC1009
  0
ENDSEC
  0
SECTION
  2
ENTITIES
  0
POLYLINE
  5
90
  8
Layer_0
  62
0
  70
1
  66
1
  10
0
  20
0
  30
0
  0
VERTEX
  5
90
  8
Layer_0
  10
158.05298
  20
139.99846
  0
VERTEX
  5
91
  8
Layer_0
  10
158.0723
  20
139.80701
  0
VERTEX
  5
92
  8
Layer_0
  10
158.12762
  20
139.62868
  0
VERTEX
  5
93
  8
Layer_0
  10
158.21523
  20
139.4673
  0
VERTEX
  5
94
  8
Layer_0
  10
158.33122
  20
139.32671
  0
VERTEX
  5
95
  8
Layer_0
  10
158.47182
  20
139.21071
  0
VERTEX
  5
96
  8
Layer_0
  10
158.63319
  20
139.12311
  0
VERTEX
  5
97
  8
Layer_0
  10
158.81152
  20
139.06776
  0
VERTEX
  5
98
  8
Layer_0
  10
159.00298
  20
139.04846
  0
VERTEX
  5
99
  8
Layer_0
  10
159.19443
  20
139.06776
  0
VERTEX
  5
9a
  8
Layer_0
  10
159.37276
  20
139.12311
  0
VERTEX
  5
9b
  8
Layer_0
  10
159.53413
  20
139.21071
  0
VERTEX
  5
9c
  8
Layer_0
  10
159.67473
  20
139.32671
  0
VERTEX
  5
9d
  8
Layer_0
  10
159.79073
  20
139.4673
  0
VERTEX
  5
9e
  8
Layer_0
  10
159.87833
  20
139.62868
  0
VERTEX
  5
9f
  8
Layer_0
  10
159.93365
  20
139.80701
  0
VERTEX
  5
a0
  8
Layer_0
  10
159.95297
  20
139.99846
  0
VERTEX
  5
a1
  8
Layer_0
  10
159.93365
  20
140.18991
  0
VERTEX
  5
a2
  8
Layer_0
  10
159.87833
  20
140.36824
  0
VERTEX
  5
a3
  8
Layer_0
  10
159.79073
  20
140.52962
  0
VERTEX
  5
a4
  8
Layer_0
  10
159.67473
  20
140.67021
  0
VERTEX
  5
a5
  8
Layer_0
  10
159.53413
  20
140.78621
  0
VERTEX
  5
a6
  8
Layer_0
  10
159.37276
  20
140.87381
  0
VERTEX
  5
a7
  8
Layer_0
  10
159.19443
  20
140.92915
  0
VERTEX
  5
a8
  8
Layer_0
  10
159.00298
  20
140.94846
  0
VERTEX
  5
a9
  8
Layer_0
  10
158.81152
  20
140.92915
  0
VERTEX
  5
aa
  8
Layer_0
  10
158.63319
  20
140.87381
  0
VERTEX
  5
ab
  8
Layer_0
  10
158.47182
  20
140.78621
  0
VERTEX
  5
ac
  8
Layer_0
  10
158.33122
  20
140.67021
  0
VERTEX
  5
ad
  8
Layer_0
  10
158.21523
  20
140.52962
  0
VERTEX
  5
ae
  8
Layer_0
  10
158.12762
  20
140.36824
  0
VERTEX
  5
af
  8
Layer_0
  10
158.0723
  20
140.18991
  0
VERTEX
  5
b0
  8
Layer_0
  10
158.05298
  20
139.99846
  0
SEQEND
  0
POLYLINE
  5
b2
  8
Layer_0
  62
0
  70
1
  66
1
  10
0
  20
0
  30
0
  0
VERTEX
  5
b2
  8
Layer_0
  10
120.05298
  20
139.99846
  0
VERTEX
  5
b3
  8
Layer_0
  10
120.07228
  20
139.80701
  0
VERTEX
  5
b4
  8
Layer_0
  10
120.12762
  20
139.62868
  0
VERTEX
  5
b5
  8
Layer_0
  10
120.21521
  20
139.4673
  0
VERTEX
  5
b6
  8
Layer_0
  10
120.33122
  20
139.32671
  0
VERTEX
  5
b7
  8
Layer_0
  10
120.47182
  20
139.21071
  0
VERTEX
  5
b8
  8
Layer_0
  10
120.63318
  20
139.12311
  0
VERTEX
  5
b9
  8
Layer_0
  10
120.81151
  20
139.06776
  0
VERTEX
  5
ba
  8
Layer_0
  10
121.00298
  20
139.04846
  0
VERTEX
  5
bb
  8
Layer_0
  10
121.19444
  20
139.06776
  0
VERTEX
  5
bc
  8
Layer_0
  10
121.37277
  20
139.12311
  0
VERTEX
  5
bd
  8
Layer_0
  10
121.53413
  20
139.21071
  0
VERTEX
  5
be
  8
Layer_0
  10
121.67473
  20
139.32671
  0
VERTEX
  5
bf
  8
Layer_0
  10
121.79074
  20
139.4673
  0
VERTEX
  5
c0
  8
Layer_0
  10
121.87833
  20
139.62868
  0
VERTEX
  5
c1
  8
Layer_0
  10
121.93367
  20
139.80701
  0
VERTEX
  5
c2
  8
Layer_0
  10
121.95297
  20
139.99846
  0
VERTEX
  5
c3
  8
Layer_0
  10
121.93367
  20
140.18991
  0
VERTEX
  5
c4
  8
Layer_0
  10
121.87833
  20
140.36824
  0
VERTEX
  5
c5
  8
Layer_0
  10
121.79074
  20
140.52962
  0
VERTEX
  5
c6
  8
Layer_0
  10
121.67473
  20
140.67021
  0
VERTEX
  5
c7
  8
Layer_0
  10
121.53413
  20
140.78621
  0
VERTEX
  5
c8
  8
Layer_0
  10
121.37277
  20
140.87381
  0
VERTEX
  5
c9
  8
Layer_0
  10
121.19444
  20
140.92915
  0
VERTEX
  5
ca
  8
Layer_0
  10
121.00298
  20
140.94846
  0
VERTEX
  5
cb
  8
Layer_0
  10
120.81151
  20
140.92915
  0
VERTEX
  5
cc
  8
Layer_0
  10
120.63318
  20
140.87381
  0
VERTEX
  5
cd
  8
Layer_0
  10
120.47182
  20
140.78621
  0
VERTEX
  5
ce
  8
Layer_0
  10
120.33122
  20
140.67021
  0
VERTEX
  5
cf
  8
Layer_0
  10
120.21521
  20
140.52962
  0
VERTEX
  5
d0
  8
Layer_0
  10
120.12762
  20
140.36824
  0
VERTEX
  5
d1
  8
Layer_0
  10
120.07228
  20
140.18991
  0
VERTEX
  5
d2
  8
Layer_0
  10
120.05298
  20
139.99846
  0
SEQEND
  0
POLYLINE
  5
d4
  8
Layer_0
  62
0
  66
1
  10
0
  20
0
  30
0
  0
VERTEX
  5
d4
  8
Layer_0
  10
139.25298
  20
162.26639
  0
VERTEX
  5
d5
  8
Layer_0
  10
139.25298
  20
161.54823
  0
VERTEX
  5
d6
  8
Layer_0
  10
139.25542
  20
161.49225
  0
VERTEX
  5
d7
  8
Layer_0
  10
139.26114
  20
161.43658
  0
VERTEX
  5
d8
  8
Layer_0
  10
139.27161
  20
161.3815
  0
VERTEX
  5
d9
  8
Layer_0
  10
139.28619
  20
161.32736
  0
VERTEX
  5
da
  8
Layer_0
  10
139.30466
  20
161.27443
  0
VERTEX
  5
db
  8
Layer_0
  10
139.32703
  20
161.22304
  0
VERTEX
  5
dc
  8
Layer_0
  10
139.35321
  20
161.17346
  0
VERTEX
  5
dd
  8
Layer_0
  10
139.38306
  20
161.12596
  0
VERTEX
  5
de
  8
Layer_0
  10
139.41635
  20
161.08083
  0
VERTEX
  5
df
  8
Layer_0
  10
139.45291
  20
161.0383
  0
VERTEX
  5
e0
  8
Layer_0
  10
139.49258
  20
160.99863
  0
VERTEX
  5
e1
  8
Layer_0
  10
139.5351
  20
160.96204
  0
VERTEX
  5
e2
  8
Layer_0
  10
139.58023
  20
160.92873
  0
VERTEX
  5
e3
  8
Layer_0
  10
139.62775
  20
160.89888
  0
VERTEX
  5
e4
  8
Layer_0
  10
139.67735
  20
160.87268
  0
VERTEX
  5
e5
  8
Layer_0
  10
139.72879
  20
160.85025
  0
VERTEX
  5
e6
  8
Layer_0
  10
139.78177
  20
160.83173
  0
VERTEX
  5
e7
  8
Layer_0
  10
139.83598
  20
160.8172
  0
VERTEX
  5
e8
  8
Layer_0
  10
139.89113
  20
160.80679
  0
VERTEX
  5
e9
  8
Layer_0
  10
139.9469
  20
160.80054
  0
VERTEX
  5
ea
  8
Layer_0
  10
140.00298
  20
160.79846
  0
VERTEX
  5
eb
  8
Layer_0
  10
140.05907
  20
160.8006
  0
VERTEX
  5
ec
  8
Layer_0
  10
140.11484
  20
160.8069
  0
VERTEX
  5
ed
  8
Layer_0
  10
140.16997
  20
160.81735
  0
VERTEX
  5
ee
  8
Layer_0
  10
140.22417
  20
160.83192
  0
VERTEX
  5
ef
  8
Layer_0
  10
140.27713
  20
160.85049
  0
VERTEX
  5
f0
  8
Layer_0
  10
140.32855
  20
160.87296
  0
VERTEX
  5
f1
  8
Layer_0
  10
140.37814
  20
160.8992
  0
VERTEX
  5
f2
  8
Layer_0
  10
140.42564
  20
160.92908
  0
VERTEX
  5
f3
  8
Layer_0
  10
140.47076
  20
160.96242
  0
VERTEX
  5
f4
  8
Layer_0
  10
140.51326
  20
160.99904
  0
VERTEX
  5
f5
  8
Layer_0
  10
140.55292
  20
161.03873
  0
VERTEX
  5
f6
  8
Layer_0
  10
140.58948
  20
161.08124
  0
VERTEX
  5
f7
  8
Layer_0
  10
140.62277
  20
161.12637
  0
VERTEX
  5
f8
  8
Layer_0
  10
140.65259
  20
161.17389
  0
VERTEX
  5
f9
  8
Layer_0
  10
140.67879
  20
161.22346
  0
VERTEX
  5
fa
  8
Layer_0
  10
140.70117
  20
161.27486
  0
VERTEX
  5
fb
  8
Layer_0
  10
140.71964
  20
161.32776
  0
VERTEX
  5
fc
  8
Layer_0
  10
140.73425
  20
161.38193
  0
VERTEX
  5
fd
  8
Layer_0
  10
140.74475
  20
161.43698
  0
VERTEX
  5
fe
  8
Layer_0
  10
140.7505
  20
161.49268
  0
VERTEX
  5
ff
  8
Layer_0
  10
140.75298
  20
161.54869
  0
VERTEX
  5
100
  8
Layer_0
  10
140.75298
  20
162.26639
  0
SEQEND
  0
POLYLINE
  5
102
  8
Layer_0
  62
0
  66
1
  10
0
  20
0
  30
0
  0
VERTEX
  5
102
  8
Layer_0
  10
140.75298
  20
117.73053
  0
VERTEX
  5
103
  8
Layer_0
  10
140.75298
  20
118.44823
  0
VERTEX
  5
104
  8
Layer_0
  10
140.74922
  20
118.50708
  0
VERTEX
  5
105
  8
Layer_0
  10
140.74316
  20
118.56555
  0
VERTEX
  5
106
  8
Layer_0
  10
140.73257
  20
118.62332
  0
VERTEX
  5
107
  8
Layer_0
  10
140.71663
  20
118.68002
  0
VERTEX
  5
108
  8
Layer_0
  10
140.69592
  20
118.73529
  0
VERTEX
  5
109
  8
Layer_0
  10
140.67108
  20
118.78879
  0
VERTEX
  5
10a
  8
Layer_0
  10
140.6423
  20
118.84019
  0
VERTEX
  5
10b
  8
Layer_0
  10
140.60966
  20
118.88919
  0
VERTEX
  5
10c
  8
Layer_0
  10
140.57323
  20
118.93546
  0
VERTEX
  5
10d
  8
Layer_0
  10
140.53322
  20
118.97873
  0
VERTEX
  5
10e
  8
Layer_0
  10
140.48993
  20
119.01871
  0
VERTEX
  5
10f
  8
Layer_0
  10
140.44365
  20
119.05518
  0
VERTEX
  5
110
  8
Layer_0
  10
140.39468
  20
119.08792
  0
VERTEX
  5
111
  8
Layer_0
  10
140.34329
  20
119.1167
  0
VERTEX
  5
112
  8
Layer_0
  10
140.28983
  20
119.14136
  0
VERTEX
  5
113
  8
Layer_0
  10
140.23457
  20
119.16174
  0
VERTEX
  5
114
  8
Layer_0
  10
140.1779
  20
119.17773
  0
VERTEX
  5
115
  8
Layer_0
  10
140.12018
  20
119.18921
  0
VERTEX
  5
116
  8
Layer_0
  10
140.06174
  20
119.19614
  0
VERTEX
  5
117
  8
Layer_0
  10
140.00293
  20
119.19846
  0
VERTEX
  5
118
  8
Layer_0
  10
139.94409
  20
119.19614
  0
VERTEX
  5
119
  8
Layer_0
  10
139.88556
  20
119.18922
  0
VERTEX
  5
11a
  8
Layer_0
  10
139.82777
  20
119.17773
  0
VERTEX
  5
11b
  8
Layer_0
  10
139.77106
  20
119.16174
  0
VERTEX
  5
11c
  8
Layer_0
  10
139.71579
  20
119.14136
  0
VERTEX
  5
11d
  8
Layer_0
  10
139.66231
  20
119.1167
  0
VERTEX
  5
11e
  8
Layer_0
  10
139.61092
  20
119.08792
  0
VERTEX
  5
11f
  8
Layer_0
  10
139.56194
  20
119.05519
  0
VERTEX
  5
120
  8
Layer_0
  10
139.5157
  20
119.01872
  0
VERTEX
  5
121
  8
Layer_0
  10
139.47246
  20
118.97874
  0
VERTEX
  5
122
  8
Layer_0
  10
139.4325
  20
118.93549
  0
VERTEX
  5
123
  8
Layer_0
  10
139.39606
  20
118.88925
  0
VERTEX
  5
124
  8
Layer_0
  10
139.36336
  20
118.8403
  0
VERTEX
  5
125
  8
Layer_0
  10
139.33459
  20
118.78893
  0
VERTEX
  5
126
  8
Layer_0
  10
139.30998
  20
118.73547
  0
VERTEX
  5
127
  8
Layer_0
  10
139.28967
  20
118.68025
  0
VERTEX
  5
128
  8
Layer_0
  10
139.27364
  20
118.62361
  0
VERTEX
  5
129
  8
Layer_0
  10
139.26204
  20
118.5659
  0
VERTEX
  5
12a
  8
Layer_0
  10
139.25563
  20
118.50748
  0
VERTEX
  5
12b
  8
Layer_0
  10
139.25298
  20
118.44868
  0
VERTEX
  5
12c
  8
Layer_0
  10
139.25298
  20
117.73053
  0
SEQEND
  0
POLYLINE
  5
12e
  8
Layer_0
  62
0
  70
1
  66
1
  10
0
  20
0
  30
0
  0
VERTEX
  5
12e
  8
Layer_0
  10
156.164
  20
162.26949
  0
VERTEX
  5
12f
  8
Layer_0
  10
119.70001
  20
162.26949
  0
VERTEX
  5
130
  8
Layer_0
  10
119.30501
  20
162.22641
  0
VERTEX
  5
131
  8
Layer_0
  10
118.93718
  20
162.10994
  0
VERTEX
  5
132
  8
Layer_0
  10
118.60422
  20
161.9278
  0
VERTEX
  5
133
  8
Layer_0
  10
118.31381
  20
161.68768
  0
VERTEX
  5
134
  8
Layer_0
  10
118.0737
  20
161.39728
  0
VERTEX
  5
135
  8
Layer_0
  10
117.89156
  20
161.06433
  0
VERTEX
  5
136
  8
Layer_0
  10
117.7751
  20
160.69649
  0
VERTEX
  5
137
  8
Layer_0
  10
117.73201
  20
160.30148
  0
VERTEX
  5
138
  8
Layer_0
  10
117.73201
  20
123.8295
  0
VERTEX
  5
139
  8
Layer_0
  10
123.836
  20
123.8295
  0
VERTEX
  5
13a
  8
Layer_0
  10
123.836
  20
117.73349
  0
VERTEX
  5
13b
  8
Layer_0
  10
160.3
  20
117.73349
  0
VERTEX
  5
13c
  8
Layer_0
  10
160.6694
  20
117.76706
  0
VERTEX
  5
13d
  8
Layer_0
  10
161.01688
  20
117.8661
  0
VERTEX
  5
13e
  8
Layer_0
  10
161.3356
  20
118.02454
  0
VERTEX
  5
13f
  8
Layer_0
  10
161.61877
  20
118.23624
  0
VERTEX
  5
140
  8
Layer_0
  10
161.85963
  20
118.49509
  0
VERTEX
  5
141
  8
Layer_0
  10
162.05132
  20
118.79498
  0
VERTEX
  5
142
  8
Layer_0
  10
162.18704
  20
119.12982
  0
VERTEX
  5
143
  8
Layer_0
  10
162.26001
  20
119.4935
  0
VERTEX
  5
144
  8
Layer_0
  10
162.26801
  20
119.70149
  0
VERTEX
  5
145
  8
Layer_0
  10
162.26801
  20
156.17349
  0
VERTEX
  5
146
  8
Layer_0
  10
156.164
  20
156.17349
  0
VERTEX
  5
147
  8
Layer_0
  10
156.164
  20
162.26949
  0
SEQEND
  0
ENDSEC
  0
EOF
