  0
SECTION
  2
HEADER
  9
$ACADVER
  1
AC1009
  0
ENDSEC
  0
SECTION
  2
ENTITIES
  0
POLYLINE
  5
90
  8
Layer_0
  62
0
  70
1
  66
1
  10
0
  20
0
  30
0
  0
VERTEX
  5
90
  8
Layer_0
  10
40.320969
  20
257.72897
  0
VERTEX
  5
91
  8
Layer_0
  10
40.340279
  20
257.53754
  0
VERTEX
  5
92
  8
Layer_0
  10
40.395622
  20
257.35919
  0
VERTEX
  5
93
  8
Layer_0
  10
40.483215
  20
257.19781
  0
VERTEX
  5
94
  8
Layer_0
  10
40.599213
  20
257.05722
  0
VERTEX
  5
95
  8
Layer_0
  10
40.739807
  20
256.94122
  0
VERTEX
  5
96
  8
Layer_0
  10
40.901184
  20
256.85364
  0
VERTEX
  5
97
  8
Layer_0
  10
41.079506
  20
256.79828
  0
VERTEX
  5
98
  8
Layer_0
  10
41.270966
  20
256.77899
  0
VERTEX
  5
99
  8
Layer_0
  10
41.462425
  20
256.79828
  0
VERTEX
  5
9a
  8
Layer_0
  10
41.640747
  20
256.85364
  0
VERTEX
  5
9b
  8
Layer_0
  10
41.802124
  20
256.94122
  0
VERTEX
  5
9c
  8
Layer_0
  10
41.942719
  20
257.05722
  0
VERTEX
  5
9d
  8
Layer_0
  10
42.058716
  20
257.19781
  0
VERTEX
  5
9e
  8
Layer_0
  10
42.146309
  20
257.35919
  0
VERTEX
  5
9f
  8
Layer_0
  10
42.201653
  20
257.53754
  0
VERTEX
  5
a0
  8
Layer_0
  10
42.220963
  20
257.72897
  0
VERTEX
  5
a1
  8
Layer_0
  10
42.201653
  20
257.92041
  0
VERTEX
  5
a2
  8
Layer_0
  10
42.146309
  20
258.09875
  0
VERTEX
  5
a3
  8
Layer_0
  10
42.058716
  20
258.26013
  0
VERTEX
  5
a4
  8
Layer_0
  10
41.942719
  20
258.40073
  0
VERTEX
  5
a5
  8
Layer_0
  10
41.802124
  20
258.51672
  0
VERTEX
  5
a6
  8
Layer_0
  10
41.640747
  20
258.60431
  0
VERTEX
  5
a7
  8
Layer_0
  10
41.462425
  20
258.65967
  0
VERTEX
  5
a8
  8
Layer_0
  10
41.270966
  20
258.67896
  0
VERTEX
  5
a9
  8
Layer_0
  10
41.079506
  20
258.65967
  0
VERTEX
  5
aa
  8
Layer_0
  10
40.901184
  20
258.60431
  0
VERTEX
  5
ab
  8
Layer_0
  10
40.739807
  20
258.51672
  0
VERTEX
  5
ac
  8
Layer_0
  10
40.599213
  20
258.40073
  0
VERTEX
  5
ad
  8
Layer_0
  10
40.483215
  20
258.26013
  0
VERTEX
  5
ae
  8
Layer_0
  10
40.395622
  20
258.09875
  0
VERTEX
  5
af
  8
Layer_0
  10
40.340279
  20
257.92041
  0
VERTEX
  5
b0
  8
Layer_0
  10
40.320969
  20
257.72897
  0
SEQEND
  0
POLYLINE
  5
b2
  8
Layer_0
  62
0
  70
1
  66
1
  10
0
  20
0
  30
0
  0
VERTEX
  5
b2
  8
Layer_0
  10
2.3209686
  20
257.72897
  0
VERTEX
  5
b3
  8
Layer_0
  10
2.340271
  20
257.53754
  0
VERTEX
  5
b4
  8
Layer_0
  10
2.3956146
  20
257.35919
  0
VERTEX
  5
b5
  8
Layer_0
  10
2.4832001
  20
257.19781
  0
VERTEX
  5
b6
  8
Layer_0
  10
2.5992126
  20
257.05722
  0
VERTEX
  5
b7
  8
Layer_0
  10
2.7398071
  20
256.94122
  0
VERTEX
  5
b8
  8
Layer_0
  10
2.9011688
  20
256.85364
  0
VERTEX
  5
b9
  8
Layer_0
  10
3.0794983
  20
256.79828
  0
VERTEX
  5
ba
  8
Layer_0
  10
3.2709656
  20
256.77899
  0
VERTEX
  5
bb
  8
Layer_0
  10
3.4624329
  20
256.79828
  0
VERTEX
  5
bc
  8
Layer_0
  10
3.6407623
  20
256.85364
  0
VERTEX
  5
bd
  8
Layer_0
  10
3.802124
  20
256.94122
  0
VERTEX
  5
be
  8
Layer_0
  10
3.9427185
  20
257.05722
  0
VERTEX
  5
bf
  8
Layer_0
  10
4.0587311
  20
257.19781
  0
VERTEX
  5
c0
  8
Layer_0
  10
4.1463165
  20
257.35919
  0
VERTEX
  5
c1
  8
Layer_0
  10
4.2016602
  20
257.53754
  0
VERTEX
  5
c2
  8
Layer_0
  10
4.2209625
  20
257.72897
  0
VERTEX
  5
c3
  8
Layer_0
  10
4.2016602
  20
257.92041
  0
VERTEX
  5
c4
  8
Layer_0
  10
4.1463165
  20
258.09875
  0
VERTEX
  5
c5
  8
Layer_0
  10
4.0587311
  20
258.26013
  0
VERTEX
  5
c6
  8
Layer_0
  10
3.9427185
  20
258.40073
  0
VERTEX
  5
c7
  8
Layer_0
  10
3.802124
  20
258.51672
  0
VERTEX
  5
c8
  8
Layer_0
  10
3.6407623
  20
258.60431
  0
VERTEX
  5
c9
  8
Layer_0
  10
3.4624329
  20
258.65967
  0
VERTEX
  5
ca
  8
Layer_0
  10
3.2709656
  20
258.67896
  0
VERTEX
  5
cb
  8
Layer_0
  10
3.0794983
  20
258.65967
  0
VERTEX
  5
cc
  8
Layer_0
  10
2.9011688
  20
258.60431
  0
VERTEX
  5
cd
  8
Layer_0
  10
2.7398071
  20
258.51672
  0
VERTEX
  5
ce
  8
Layer_0
  10
2.5992126
  20
258.40073
  0
VERTEX
  5
cf
  8
Layer_0
  10
2.4832001
  20
258.26013
  0
VERTEX
  5
d0
  8
Layer_0
  10
2.3956146
  20
258.09875
  0
VERTEX
  5
d1
  8
Layer_0
  10
2.340271
  20
257.92041
  0
VERTEX
  5
d2
  8
Layer_0
  10
2.3209686
  20
257.72897
  0
SEQEND
  0
POLYLINE
  5
d4
  8
Layer_0
  62
0
  70
1
  66
1
  10
0
  20
0
  30
0
  0
VERTEX
  5
d4
  8
Layer_0
  10
38.431999
  20
280
  0
VERTEX
  5
d5
  8
Layer_0
  10
1.9680023
  20
280
  0
VERTEX
  5
d6
  8
Layer_0
  10
1.572998
  20
279.95691
  0
VERTEX
  5
d7
  8
Layer_0
  10
1.2051697
  20
279.84045
  0
VERTEX
  5
d8
  8
Layer_0
  10
0.87220764
  20
279.65833
  0
VERTEX
  5
d9
  8
Layer_0
  10
0.58180237
  20
279.41821
  0
VERTEX
  5
da
  8
Layer_0
  10
0.34169006
  20
279.12781
  0
VERTEX
  5
db
  8
Layer_0
  10
0.1595459
  20
278.79486
  0
VERTEX
  5
dc
  8
Layer_0
  10
0.04309082
  20
278.427
  0
VERTEX
  5
dd
  8
Layer_0
  10
0
  20
278.03198
  0
VERTEX
  5
de
  8
Layer_0
  10
0
  20
241.56001
  0
VERTEX
  5
df
  8
Layer_0
  10
6.1039886
  20
241.56001
  0
VERTEX
  5
e0
  8
Layer_0
  10
6.1039886
  20
235.464
  0
VERTEX
  5
e1
  8
Layer_0
  10
42.567993
  20
235.464
  0
VERTEX
  5
e2
  8
Layer_0
  10
42.937393
  20
235.49757
  0
VERTEX
  5
e3
  8
Layer_0
  10
43.284859
  20
235.59662
  0
VERTEX
  5
e4
  8
Layer_0
  10
43.603592
  20
235.75505
  0
VERTEX
  5
e5
  8
Layer_0
  10
43.886772
  20
235.96675
  0
VERTEX
  5
e6
  8
Layer_0
  10
44.127625
  20
236.2256
  0
VERTEX
  5
e7
  8
Layer_0
  10
44.319305
  20
236.5255
  0
VERTEX
  5
e8
  8
Layer_0
  10
44.455032
  20
236.86034
  0
VERTEX
  5
e9
  8
Layer_0
  10
44.527992
  20
237.22401
  0
VERTEX
  5
ea
  8
Layer_0
  10
44.535995
  20
237.43201
  0
VERTEX
  5
eb
  8
Layer_0
  10
44.535995
  20
273.90399
  0
VERTEX
  5
ec
  8
Layer_0
  10
38.431999
  20
273.90399
  0
VERTEX
  5
ed
  8
Layer_0
  10
38.431999
  20
280
  0
SEQEND
  0
ENDSEC
  0
EOF
