  0
SECTION
  2
HEADER
  9
$ACADVER
  1
AC1009
  0
ENDSEC
  0
SECTION
  2
ENTITIES
  0
POLYLINE
  5
90
  8
Layer_1
  62
138
  70
1
  66
1
  10
0
  20
0
  30
0
  0
VERTEX
  5
90
  8
Layer_1
  10
22.999992
  20
266.79999
  0
VERTEX
  5
91
  8
Layer_1
  10
22.987085
  20
266.54437
  0
VERTEX
  5
92
  8
Layer_1
  10
22.949202
  20
266.29614
  0
VERTEX
  5
93
  8
Layer_1
  10
22.887596
  20
266.05658
  0
VERTEX
  5
94
  8
Layer_1
  10
22.80353
  20
265.82687
  0
VERTEX
  5
95
  8
Layer_1
  10
22.573032
  20
265.40222
  0
VERTEX
  5
96
  8
Layer_1
  10
22.267761
  20
265.03223
  0
VERTEX
  5
97
  8
Layer_1
  10
21.897768
  20
264.72696
  0
VERTEX
  5
98
  8
Layer_1
  10
21.473106
  20
264.49646
  0
VERTEX
  5
99
  8
Layer_1
  10
21.243418
  20
264.41238
  0
VERTEX
  5
9a
  8
Layer_1
  10
21.00383
  20
264.35077
  0
VERTEX
  5
9b
  8
Layer_1
  10
20.755602
  20
264.3129
  0
VERTEX
  5
9c
  8
Layer_1
  10
20.499992
  20
264.29999
  0
VERTEX
  5
9d
  8
Layer_1
  10
20.244383
  20
264.3129
  0
VERTEX
  5
9e
  8
Layer_1
  10
19.996155
  20
264.35077
  0
VERTEX
  5
9f
  8
Layer_1
  10
19.756567
  20
264.41238
  0
VERTEX
  5
a0
  8
Layer_1
  10
19.526878
  20
264.49646
  0
VERTEX
  5
a1
  8
Layer_1
  10
19.102217
  20
264.72696
  0
VERTEX
  5
a2
  8
Layer_1
  10
18.732224
  20
265.03223
  0
VERTEX
  5
a3
  8
Layer_1
  10
18.426952
  20
265.40222
  0
VERTEX
  5
a4
  8
Layer_1
  10
18.196455
  20
265.82687
  0
VERTEX
  5
a5
  8
Layer_1
  10
18.112389
  20
266.05658
  0
VERTEX
  5
a6
  8
Layer_1
  10
18.050783
  20
266.29614
  0
VERTEX
  5
a7
  8
Layer_1
  10
18.012899
  20
266.54437
  0
VERTEX
  5
a8
  8
Layer_1
  10
17.999992
  20
266.79999
  0
VERTEX
  5
a9
  8
Layer_1
  10
18.012899
  20
267.0556
  0
VERTEX
  5
aa
  8
Layer_1
  10
18.050783
  20
267.30383
  0
VERTEX
  5
ab
  8
Layer_1
  10
18.112389
  20
267.54343
  0
VERTEX
  5
ac
  8
Layer_1
  10
18.196455
  20
267.7731
  0
VERTEX
  5
ad
  8
Layer_1
  10
18.426952
  20
268.19775
  0
VERTEX
  5
ae
  8
Layer_1
  10
18.732224
  20
268.56775
  0
VERTEX
  5
af
  8
Layer_1
  10
19.102217
  20
268.87305
  0
VERTEX
  5
b0
  8
Layer_1
  10
19.526878
  20
269.10352
  0
VERTEX
  5
b1
  8
Layer_1
  10
19.756567
  20
269.18759
  0
VERTEX
  5
b2
  8
Layer_1
  10
19.996155
  20
269.24921
  0
VERTEX
  5
b3
  8
Layer_1
  10
20.244383
  20
269.28708
  0
VERTEX
  5
b4
  8
Layer_1
  10
20.499992
  20
269.29999
  0
VERTEX
  5
b5
  8
Layer_1
  10
20.755602
  20
269.28708
  0
VERTEX
  5
b6
  8
Layer_1
  10
21.00383
  20
269.24921
  0
VERTEX
  5
b7
  8
Layer_1
  10
21.243418
  20
269.18759
  0
VERTEX
  5
b8
  8
Layer_1
  10
21.473106
  20
269.10352
  0
VERTEX
  5
b9
  8
Layer_1
  10
21.897768
  20
268.87305
  0
VERTEX
  5
ba
  8
Layer_1
  10
22.267761
  20
268.56775
  0
VERTEX
  5
bb
  8
Layer_1
  10
22.573032
  20
268.19775
  0
VERTEX
  5
bc
  8
Layer_1
  10
22.80353
  20
267.7731
  0
VERTEX
  5
bd
  8
Layer_1
  10
22.887596
  20
267.54343
  0
VERTEX
  5
be
  8
Layer_1
  10
22.949202
  20
267.30383
  0
VERTEX
  5
bf
  8
Layer_1
  10
22.987085
  20
267.0556
  0
VERTEX
  5
c0
  8
Layer_1
  10
22.999992
  20
266.79999
  0
SEQEND
  0
POLYLINE
  5
c2
  8
Layer_1
  62
138
  70
1
  66
1
  10
0
  20
0
  30
0
  0
VERTEX
  5
c2
  8
Layer_1
  10
21.399992
  20
266.79999
  0
VERTEX
  5
c3
  8
Layer_1
  10
21.381708
  20
266.61862
  0
VERTEX
  5
c4
  8
Layer_1
  10
21.329266
  20
266.44968
  0
VERTEX
  5
c5
  8
Layer_1
  10
21.246284
  20
266.29678
  0
VERTEX
  5
c6
  8
Layer_1
  10
21.136387
  20
266.1636
  0
VERTEX
  5
c7
  8
Layer_1
  10
21.003189
  20
266.05371
  0
VERTEX
  5
c8
  8
Layer_1
  10
20.850311
  20
265.9707
  0
VERTEX
  5
c9
  8
Layer_1
  10
20.681374
  20
265.91827
  0
VERTEX
  5
ca
  8
Layer_1
  10
20.499992
  20
265.89999
  0
VERTEX
  5
cb
  8
Layer_1
  10
20.318611
  20
265.91827
  0
VERTEX
  5
cc
  8
Layer_1
  10
20.149673
  20
265.9707
  0
VERTEX
  5
cd
  8
Layer_1
  10
19.996796
  20
266.05371
  0
VERTEX
  5
ce
  8
Layer_1
  10
19.863598
  20
266.1636
  0
VERTEX
  5
cf
  8
Layer_1
  10
19.7537
  20
266.29678
  0
VERTEX
  5
d0
  8
Layer_1
  10
19.670719
  20
266.44968
  0
VERTEX
  5
d1
  8
Layer_1
  10
19.618277
  20
266.61862
  0
VERTEX
  5
d2
  8
Layer_1
  10
19.599993
  20
266.79999
  0
VERTEX
  5
d3
  8
Layer_1
  10
19.618277
  20
266.98138
  0
VERTEX
  5
d4
  8
Layer_1
  10
19.670719
  20
267.1503
  0
VERTEX
  5
d5
  8
Layer_1
  10
19.7537
  20
267.30319
  0
VERTEX
  5
d6
  8
Layer_1
  10
19.863598
  20
267.4364
  0
VERTEX
  5
d7
  8
Layer_1
  10
19.996796
  20
267.5463
  0
VERTEX
  5
d8
  8
Layer_1
  10
20.149673
  20
267.62927
  0
VERTEX
  5
d9
  8
Layer_1
  10
20.318611
  20
267.6817
  0
VERTEX
  5
da
  8
Layer_1
  10
20.499992
  20
267.69998
  0
VERTEX
  5
db
  8
Layer_1
  10
20.681374
  20
267.6817
  0
VERTEX
  5
dc
  8
Layer_1
  10
20.850311
  20
267.62927
  0
VERTEX
  5
dd
  8
Layer_1
  10
21.003189
  20
267.5463
  0
VERTEX
  5
de
  8
Layer_1
  10
21.136387
  20
267.4364
  0
VERTEX
  5
df
  8
Layer_1
  10
21.246284
  20
267.30319
  0
VERTEX
  5
e0
  8
Layer_1
  10
21.329266
  20
267.1503
  0
VERTEX
  5
e1
  8
Layer_1
  10
21.381708
  20
266.98138
  0
VERTEX
  5
e2
  8
Layer_1
  10
21.399992
  20
266.79999
  0
SEQEND
  0
POLYLINE
  5
e4
  8
Layer_1
  62
138
  70
1
  66
1
  10
0
  20
0
  30
0
  0
VERTEX
  5
e4
  8
Layer_1
  10
77.999992
  20
178.79999
  0
VERTEX
  5
e5
  8
Layer_1
  10
77.987083
  20
178.54437
  0
VERTEX
  5
e6
  8
Layer_1
  10
77.949196
  20
178.29614
  0
VERTEX
  5
e7
  8
Layer_1
  10
77.887596
  20
178.05656
  0
VERTEX
  5
e8
  8
Layer_1
  10
77.803528
  20
177.82687
  0
VERTEX
  5
e9
  8
Layer_1
  10
77.573029
  20
177.40222
  0
VERTEX
  5
ea
  8
Layer_1
  10
77.267761
  20
177.03223
  0
VERTEX
  5
eb
  8
Layer_1
  10
76.897766
  20
176.72694
  0
VERTEX
  5
ec
  8
Layer_1
  10
76.473106
  20
176.49644
  0
VERTEX
  5
ed
  8
Layer_1
  10
76.243423
  20
176.41238
  0
VERTEX
  5
ee
  8
Layer_1
  10
76.00383
  20
176.35077
  0
VERTEX
  5
ef
  8
Layer_1
  10
75.7556
  20
176.3129
  0
VERTEX
  5
f0
  8
Layer_1
  10
75.499992
  20
176.29999
  0
VERTEX
  5
f1
  8
Layer_1
  10
75.244385
  20
176.3129
  0
VERTEX
  5
f2
  8
Layer_1
  10
74.996155
  20
176.35077
  0
VERTEX
  5
f3
  8
Layer_1
  10
74.756561
  20
176.41238
  0
VERTEX
  5
f4
  8
Layer_1
  10
74.526878
  20
176.49644
  0
VERTEX
  5
f5
  8
Layer_1
  10
74.102219
  20
176.72694
  0
VERTEX
  5
f6
  8
Layer_1
  10
73.732224
  20
177.03223
  0
VERTEX
  5
f7
  8
Layer_1
  10
73.426956
  20
177.40222
  0
VERTEX
  5
f8
  8
Layer_1
  10
73.196457
  20
177.82687
  0
VERTEX
  5
f9
  8
Layer_1
  10
73.112389
  20
178.05656
  0
VERTEX
  5
fa
  8
Layer_1
  10
73.050789
  20
178.29614
  0
VERTEX
  5
fb
  8
Layer_1
  10
73.012901
  20
178.54437
  0
VERTEX
  5
fc
  8
Layer_1
  10
72.999992
  20
178.79999
  0
VERTEX
  5
fd
  8
Layer_1
  10
73.012901
  20
179.0556
  0
VERTEX
  5
fe
  8
Layer_1
  10
73.050789
  20
179.30383
  0
VERTEX
  5
ff
  8
Layer_1
  10
73.112389
  20
179.54341
  0
VERTEX
  5
100
  8
Layer_1
  10
73.196457
  20
179.7731
  0
VERTEX
  5
101
  8
Layer_1
  10
73.426956
  20
180.19775
  0
VERTEX
  5
102
  8
Layer_1
  10
73.732224
  20
180.56775
  0
VERTEX
  5
103
  8
Layer_1
  10
74.102219
  20
180.87303
  0
VERTEX
  5
104
  8
Layer_1
  10
74.526878
  20
181.10353
  0
VERTEX
  5
105
  8
Layer_1
  10
74.756561
  20
181.18759
  0
VERTEX
  5
106
  8
Layer_1
  10
74.996155
  20
181.24921
  0
VERTEX
  5
107
  8
Layer_1
  10
75.244385
  20
181.28708
  0
VERTEX
  5
108
  8
Layer_1
  10
75.499992
  20
181.29999
  0
VERTEX
  5
109
  8
Layer_1
  10
75.7556
  20
181.28708
  0
VERTEX
  5
10a
  8
Layer_1
  10
76.00383
  20
181.24921
  0
VERTEX
  5
10b
  8
Layer_1
  10
76.243423
  20
181.18759
  0
VERTEX
  5
10c
  8
Layer_1
  10
76.473106
  20
181.10353
  0
VERTEX
  5
10d
  8
Layer_1
  10
76.897766
  20
180.87303
  0
VERTEX
  5
10e
  8
Layer_1
  10
77.267761
  20
180.56775
  0
VERTEX
  5
10f
  8
Layer_1
  10
77.573029
  20
180.19775
  0
VERTEX
  5
110
  8
Layer_1
  10
77.803528
  20
179.7731
  0
VERTEX
  5
111
  8
Layer_1
  10
77.887596
  20
179.54341
  0
VERTEX
  5
112
  8
Layer_1
  10
77.949196
  20
179.30383
  0
VERTEX
  5
113
  8
Layer_1
  10
77.987083
  20
179.0556
  0
VERTEX
  5
114
  8
Layer_1
  10
77.999992
  20
178.79999
  0
SEQEND
  0
POLYLINE
  5
116
  8
Layer_1
  62
138
  70
1
  66
1
  10
0
  20
0
  30
0
  0
VERTEX
  5
116
  8
Layer_1
  10
76.399994
  20
178.79999
  0
VERTEX
  5
117
  8
Layer_1
  10
76.381714
  20
178.61861
  0
VERTEX
  5
118
  8
Layer_1
  10
76.329269
  20
178.44968
  0
VERTEX
  5
119
  8
Layer_1
  10
76.246284
  20
178.29678
  0
VERTEX
  5
11a
  8
Layer_1
  10
76.136383
  20
178.16359
  0
VERTEX
  5
11b
  8
Layer_1
  10
76.003189
  20
178.0537
  0
VERTEX
  5
11c
  8
Layer_1
  10
75.850311
  20
177.9707
  0
VERTEX
  5
11d
  8
Layer_1
  10
75.681366
  20
177.91827
  0
VERTEX
  5
11e
  8
Layer_1
  10
75.499992
  20
177.89999
  0
VERTEX
  5
11f
  8
Layer_1
  10
75.318619
  20
177.91827
  0
VERTEX
  5
120
  8
Layer_1
  10
75.149673
  20
177.9707
  0
VERTEX
  5
121
  8
Layer_1
  10
74.996796
  20
178.0537
  0
VERTEX
  5
122
  8
Layer_1
  10
74.863602
  20
178.16359
  0
VERTEX
  5
123
  8
Layer_1
  10
74.7537
  20
178.29678
  0
VERTEX
  5
124
  8
Layer_1
  10
74.670715
  20
178.44968
  0
VERTEX
  5
125
  8
Layer_1
  10
74.618271
  20
178.61861
  0
VERTEX
  5
126
  8
Layer_1
  10
74.599991
  20
178.79999
  0
VERTEX
  5
127
  8
Layer_1
  10
74.618271
  20
178.98137
  0
VERTEX
  5
128
  8
Layer_1
  10
74.670715
  20
179.1503
  0
VERTEX
  5
129
  8
Layer_1
  10
74.7537
  20
179.30319
  0
VERTEX
  5
12a
  8
Layer_1
  10
74.863602
  20
179.43639
  0
VERTEX
  5
12b
  8
Layer_1
  10
74.996796
  20
179.54628
  0
VERTEX
  5
12c
  8
Layer_1
  10
75.149673
  20
179.62927
  0
VERTEX
  5
12d
  8
Layer_1
  10
75.318619
  20
179.6817
  0
VERTEX
  5
12e
  8
Layer_1
  10
75.499992
  20
179.69998
  0
VERTEX
  5
12f
  8
Layer_1
  10
75.681366
  20
179.6817
  0
VERTEX
  5
130
  8
Layer_1
  10
75.850311
  20
179.62927
  0
VERTEX
  5
131
  8
Layer_1
  10
76.003189
  20
179.54628
  0
VERTEX
  5
132
  8
Layer_1
  10
76.136383
  20
179.43639
  0
VERTEX
  5
133
  8
Layer_1
  10
76.246284
  20
179.30319
  0
VERTEX
  5
134
  8
Layer_1
  10
76.329269
  20
179.1503
  0
VERTEX
  5
135
  8
Layer_1
  10
76.381714
  20
178.98137
  0
VERTEX
  5
136
  8
Layer_1
  10
76.399994
  20
178.79999
  0
SEQEND
  0
POLYLINE
  5
138
  8
Layer_1
  62
138
  70
1
  66
1
  10
0
  20
0
  30
0
  0
VERTEX
  5
138
  8
Layer_1
  10
22.999992
  20
178.79999
  0
VERTEX
  5
139
  8
Layer_1
  10
22.987085
  20
178.54437
  0
VERTEX
  5
13a
  8
Layer_1
  10
22.949202
  20
178.29614
  0
VERTEX
  5
13b
  8
Layer_1
  10
22.887596
  20
178.05656
  0
VERTEX
  5
13c
  8
Layer_1
  10
22.80353
  20
177.82687
  0
VERTEX
  5
13d
  8
Layer_1
  10
22.573032
  20
177.40222
  0
VERTEX
  5
13e
  8
Layer_1
  10
22.267761
  20
177.03223
  0
VERTEX
  5
13f
  8
Layer_1
  10
21.897768
  20
176.72694
  0
VERTEX
  5
140
  8
Layer_1
  10
21.473106
  20
176.49644
  0
VERTEX
  5
141
  8
Layer_1
  10
21.243418
  20
176.41238
  0
VERTEX
  5
142
  8
Layer_1
  10
21.00383
  20
176.35077
  0
VERTEX
  5
143
  8
Layer_1
  10
20.755602
  20
176.3129
  0
VERTEX
  5
144
  8
Layer_1
  10
20.499992
  20
176.29999
  0
VERTEX
  5
145
  8
Layer_1
  10
20.244383
  20
176.3129
  0
VERTEX
  5
146
  8
Layer_1
  10
19.996155
  20
176.35077
  0
VERTEX
  5
147
  8
Layer_1
  10
19.756567
  20
176.41238
  0
VERTEX
  5
148
  8
Layer_1
  10
19.526878
  20
176.49644
  0
VERTEX
  5
149
  8
Layer_1
  10
19.102217
  20
176.72694
  0
VERTEX
  5
14a
  8
Layer_1
  10
18.732224
  20
177.03223
  0
VERTEX
  5
14b
  8
Layer_1
  10
18.426952
  20
177.40222
  0
VERTEX
  5
14c
  8
Layer_1
  10
18.196455
  20
177.82687
  0
VERTEX
  5
14d
  8
Layer_1
  10
18.112389
  20
178.05656
  0
VERTEX
  5
14e
  8
Layer_1
  10
18.050783
  20
178.29614
  0
VERTEX
  5
14f
  8
Layer_1
  10
18.012899
  20
178.54437
  0
VERTEX
  5
150
  8
Layer_1
  10
17.999992
  20
178.79999
  0
VERTEX
  5
151
  8
Layer_1
  10
18.012899
  20
179.0556
  0
VERTEX
  5
152
  8
Layer_1
  10
18.050783
  20
179.30383
  0
VERTEX
  5
153
  8
Layer_1
  10
18.112389
  20
179.54341
  0
VERTEX
  5
154
  8
Layer_1
  10
18.196455
  20
179.7731
  0
VERTEX
  5
155
  8
Layer_1
  10
18.426952
  20
180.19775
  0
VERTEX
  5
156
  8
Layer_1
  10
18.732224
  20
180.56775
  0
VERTEX
  5
157
  8
Layer_1
  10
19.102217
  20
180.87303
  0
VERTEX
  5
158
  8
Layer_1
  10
19.526878
  20
181.10353
  0
VERTEX
  5
159
  8
Layer_1
  10
19.756567
  20
181.18759
  0
VERTEX
  5
15a
  8
Layer_1
  10
19.996155
  20
181.24921
  0
VERTEX
  5
15b
  8
Layer_1
  10
20.244383
  20
181.28708
  0
VERTEX
  5
15c
  8
Layer_1
  10
20.499992
  20
181.29999
  0
VERTEX
  5
15d
  8
Layer_1
  10
20.755602
  20
181.28708
  0
VERTEX
  5
15e
  8
Layer_1
  10
21.00383
  20
181.24921
  0
VERTEX
  5
15f
  8
Layer_1
  10
21.243418
  20
181.18759
  0
VERTEX
  5
160
  8
Layer_1
  10
21.473106
  20
181.10353
  0
VERTEX
  5
161
  8
Layer_1
  10
21.897768
  20
180.87303
  0
VERTEX
  5
162
  8
Layer_1
  10
22.267761
  20
180.56775
  0
VERTEX
  5
163
  8
Layer_1
  10
22.573032
  20
180.19775
  0
VERTEX
  5
164
  8
Layer_1
  10
22.80353
  20
179.7731
  0
VERTEX
  5
165
  8
Layer_1
  10
22.887596
  20
179.54341
  0
VERTEX
  5
166
  8
Layer_1
  10
22.949202
  20
179.30383
  0
VERTEX
  5
167
  8
Layer_1
  10
22.987085
  20
179.0556
  0
VERTEX
  5
168
  8
Layer_1
  10
22.999992
  20
178.79999
  0
SEQEND
  0
POLYLINE
  5
16a
  8
Layer_1
  62
138
  70
1
  66
1
  10
0
  20
0
  30
0
  0
VERTEX
  5
16a
  8
Layer_1
  10
21.399992
  20
178.79999
  0
VERTEX
  5
16b
  8
Layer_1
  10
21.381708
  20
178.61861
  0
VERTEX
  5
16c
  8
Layer_1
  10
21.329266
  20
178.44968
  0
VERTEX
  5
16d
  8
Layer_1
  10
21.246284
  20
178.29678
  0
VERTEX
  5
16e
  8
Layer_1
  10
21.136387
  20
178.16359
  0
VERTEX
  5
16f
  8
Layer_1
  10
21.003189
  20
178.0537
  0
VERTEX
  5
170
  8
Layer_1
  10
20.850311
  20
177.9707
  0
VERTEX
  5
171
  8
Layer_1
  10
20.681374
  20
177.91827
  0
VERTEX
  5
172
  8
Layer_1
  10
20.499992
  20
177.89999
  0
VERTEX
  5
173
  8
Layer_1
  10
20.318611
  20
177.91827
  0
VERTEX
  5
174
  8
Layer_1
  10
20.149673
  20
177.9707
  0
VERTEX
  5
175
  8
Layer_1
  10
19.996796
  20
178.0537
  0
VERTEX
  5
176
  8
Layer_1
  10
19.863598
  20
178.16359
  0
VERTEX
  5
177
  8
Layer_1
  10
19.7537
  20
178.29678
  0
VERTEX
  5
178
  8
Layer_1
  10
19.670719
  20
178.44968
  0
VERTEX
  5
179
  8
Layer_1
  10
19.618277
  20
178.61861
  0
VERTEX
  5
17a
  8
Layer_1
  10
19.599993
  20
178.79999
  0
VERTEX
  5
17b
  8
Layer_1
  10
19.618277
  20
178.98137
  0
VERTEX
  5
17c
  8
Layer_1
  10
19.670719
  20
179.1503
  0
VERTEX
  5
17d
  8
Layer_1
  10
19.7537
  20
179.30319
  0
VERTEX
  5
17e
  8
Layer_1
  10
19.863598
  20
179.43639
  0
VERTEX
  5
17f
  8
Layer_1
  10
19.996796
  20
179.54628
  0
VERTEX
  5
180
  8
Layer_1
  10
20.149673
  20
179.62927
  0
VERTEX
  5
181
  8
Layer_1
  10
20.318611
  20
179.6817
  0
VERTEX
  5
182
  8
Layer_1
  10
20.499992
  20
179.69998
  0
VERTEX
  5
183
  8
Layer_1
  10
20.681374
  20
179.6817
  0
VERTEX
  5
184
  8
Layer_1
  10
20.850311
  20
179.62927
  0
VERTEX
  5
185
  8
Layer_1
  10
21.003189
  20
179.54628
  0
VERTEX
  5
186
  8
Layer_1
  10
21.136387
  20
179.43639
  0
VERTEX
  5
187
  8
Layer_1
  10
21.246284
  20
179.30319
  0
VERTEX
  5
188
  8
Layer_1
  10
21.329266
  20
179.1503
  0
VERTEX
  5
189
  8
Layer_1
  10
21.381708
  20
178.98137
  0
VERTEX
  5
18a
  8
Layer_1
  10
21.399992
  20
178.79999
  0
SEQEND
  0
POLYLINE
  5
18c
  8
Layer_1
  62
138
  70
1
  66
1
  10
0
  20
0
  30
0
  0
VERTEX
  5
18c
  8
Layer_1
  10
22.499992
  20
200.39998
  0
VERTEX
  5
18d
  8
Layer_1
  10
22.487085
  20
200.14436
  0
VERTEX
  5
18e
  8
Layer_1
  10
22.449202
  20
199.89615
  0
VERTEX
  5
18f
  8
Layer_1
  10
22.387596
  20
199.65656
  0
VERTEX
  5
190
  8
Layer_1
  10
22.30353
  20
199.42688
  0
VERTEX
  5
191
  8
Layer_1
  10
22.073032
  20
199.00221
  0
VERTEX
  5
192
  8
Layer_1
  10
21.767761
  20
198.63222
  0
VERTEX
  5
193
  8
Layer_1
  10
21.397768
  20
198.32693
  0
VERTEX
  5
194
  8
Layer_1
  10
20.973106
  20
198.09644
  0
VERTEX
  5
195
  8
Layer_1
  10
20.743418
  20
198.01237
  0
VERTEX
  5
196
  8
Layer_1
  10
20.50383
  20
197.95078
  0
VERTEX
  5
197
  8
Layer_1
  10
20.255602
  20
197.91289
  0
VERTEX
  5
198
  8
Layer_1
  10
19.999992
  20
197.89998
  0
VERTEX
  5
199
  8
Layer_1
  10
19.744383
  20
197.91289
  0
VERTEX
  5
19a
  8
Layer_1
  10
19.496155
  20
197.95078
  0
VERTEX
  5
19b
  8
Layer_1
  10
19.256567
  20
198.01237
  0
VERTEX
  5
19c
  8
Layer_1
  10
19.026878
  20
198.09644
  0
VERTEX
  5
19d
  8
Layer_1
  10
18.602217
  20
198.32693
  0
VERTEX
  5
19e
  8
Layer_1
  10
18.232224
  20
198.63222
  0
VERTEX
  5
19f
  8
Layer_1
  10
17.926952
  20
199.00221
  0
VERTEX
  5
1a0
  8
Layer_1
  10
17.696455
  20
199.42688
  0
VERTEX
  5
1a1
  8
Layer_1
  10
17.612389
  20
199.65656
  0
VERTEX
  5
1a2
  8
Layer_1
  10
17.550783
  20
199.89615
  0
VERTEX
  5
1a3
  8
Layer_1
  10
17.512899
  20
200.14436
  0
VERTEX
  5
1a4
  8
Layer_1
  10
17.499992
  20
200.39998
  0
VERTEX
  5
1a5
  8
Layer_1
  10
17.512899
  20
200.65559
  0
VERTEX
  5
1a6
  8
Layer_1
  10
17.550783
  20
200.90381
  0
VERTEX
  5
1a7
  8
Layer_1
  10
17.612389
  20
201.1434
  0
VERTEX
  5
1a8
  8
Layer_1
  10
17.696455
  20
201.37308
  0
VERTEX
  5
1a9
  8
Layer_1
  10
17.926952
  20
201.79774
  0
VERTEX
  5
1aa
  8
Layer_1
  10
18.232224
  20
202.16774
  0
VERTEX
  5
1ab
  8
Layer_1
  10
18.602217
  20
202.47302
  0
VERTEX
  5
1ac
  8
Layer_1
  10
19.026878
  20
202.70352
  0
VERTEX
  5
1ad
  8
Layer_1
  10
19.256567
  20
202.78758
  0
VERTEX
  5
1ae
  8
Layer_1
  10
19.496155
  20
202.84918
  0
VERTEX
  5
1af
  8
Layer_1
  10
19.744383
  20
202.88707
  0
VERTEX
  5
1b0
  8
Layer_1
  10
19.999992
  20
202.89998
  0
VERTEX
  5
1b1
  8
Layer_1
  10
20.255602
  20
202.88707
  0
VERTEX
  5
1b2
  8
Layer_1
  10
20.50383
  20
202.84918
  0
VERTEX
  5
1b3
  8
Layer_1
  10
20.743418
  20
202.78758
  0
VERTEX
  5
1b4
  8
Layer_1
  10
20.973106
  20
202.70352
  0
VERTEX
  5
1b5
  8
Layer_1
  10
21.397768
  20
202.47302
  0
VERTEX
  5
1b6
  8
Layer_1
  10
21.767761
  20
202.16774
  0
VERTEX
  5
1b7
  8
Layer_1
  10
22.073032
  20
201.79774
  0
VERTEX
  5
1b8
  8
Layer_1
  10
22.30353
  20
201.37308
  0
VERTEX
  5
1b9
  8
Layer_1
  10
22.387596
  20
201.1434
  0
VERTEX
  5
1ba
  8
Layer_1
  10
22.449202
  20
200.90381
  0
VERTEX
  5
1bb
  8
Layer_1
  10
22.487085
  20
200.65559
  0
VERTEX
  5
1bc
  8
Layer_1
  10
22.499992
  20
200.39998
  0
SEQEND
  0
POLYLINE
  5
1be
  8
Layer_1
  62
138
  70
1
  66
1
  10
0
  20
0
  30
0
  0
VERTEX
  5
1be
  8
Layer_1
  10
20.949993
  20
200.39998
  0
VERTEX
  5
1bf
  8
Layer_1
  10
20.930693
  20
200.20853
  0
VERTEX
  5
1c0
  8
Layer_1
  10
20.875338
  20
200.0302
  0
VERTEX
  5
1c1
  8
Layer_1
  10
20.787748
  20
199.86882
  0
VERTEX
  5
1c2
  8
Layer_1
  10
20.671745
  20
199.72823
  0
VERTEX
  5
1c3
  8
Layer_1
  10
20.531147
  20
199.61223
  0
VERTEX
  5
1c4
  8
Layer_1
  10
20.369776
  20
199.52463
  0
VERTEX
  5
1c5
  8
Layer_1
  10
20.19145
  20
199.46928
  0
VERTEX
  5
1c6
  8
Layer_1
  10
19.999992
  20
199.44998
  0
VERTEX
  5
1c7
  8
Layer_1
  10
19.808535
  20
199.46928
  0
VERTEX
  5
1c8
  8
Layer_1
  10
19.630209
  20
199.52463
  0
VERTEX
  5
1c9
  8
Layer_1
  10
19.468838
  20
199.61223
  0
VERTEX
  5
1ca
  8
Layer_1
  10
19.328239
  20
199.72823
  0
VERTEX
  5
1cb
  8
Layer_1
  10
19.212236
  20
199.86882
  0
VERTEX
  5
1cc
  8
Layer_1
  10
19.124647
  20
200.0302
  0
VERTEX
  5
1cd
  8
Layer_1
  10
19.069292
  20
200.20853
  0
VERTEX
  5
1ce
  8
Layer_1
  10
19.049992
  20
200.39998
  0
VERTEX
  5
1cf
  8
Layer_1
  10
19.069292
  20
200.59143
  0
VERTEX
  5
1d0
  8
Layer_1
  10
19.124647
  20
200.76976
  0
VERTEX
  5
1d1
  8
Layer_1
  10
19.212236
  20
200.93114
  0
VERTEX
  5
1d2
  8
Layer_1
  10
19.328239
  20
201.07173
  0
VERTEX
  5
1d3
  8
Layer_1
  10
19.468838
  20
201.18773
  0
VERTEX
  5
1d4
  8
Layer_1
  10
19.630209
  20
201.27533
  0
VERTEX
  5
1d5
  8
Layer_1
  10
19.808535
  20
201.33067
  0
VERTEX
  5
1d6
  8
Layer_1
  10
19.999992
  20
201.34998
  0
VERTEX
  5
1d7
  8
Layer_1
  10
20.19145
  20
201.33067
  0
VERTEX
  5
1d8
  8
Layer_1
  10
20.369776
  20
201.27533
  0
VERTEX
  5
1d9
  8
Layer_1
  10
20.531147
  20
201.18773
  0
VERTEX
  5
1da
  8
Layer_1
  10
20.671745
  20
201.07173
  0
VERTEX
  5
1db
  8
Layer_1
  10
20.787748
  20
200.93114
  0
VERTEX
  5
1dc
  8
Layer_1
  10
20.875338
  20
200.76976
  0
VERTEX
  5
1dd
  8
Layer_1
  10
20.930693
  20
200.59143
  0
VERTEX
  5
1de
  8
Layer_1
  10
20.949993
  20
200.39998
  0
SEQEND
  0
POLYLINE
  5
1e0
  8
Layer_1
  62
138
  70
1
  66
1
  10
0
  20
0
  30
0
  0
VERTEX
  5
1e0
  8
Layer_1
  10
78.499992
  20
200.39998
  0
VERTEX
  5
1e1
  8
Layer_1
  10
78.487083
  20
200.14436
  0
VERTEX
  5
1e2
  8
Layer_1
  10
78.449196
  20
199.89615
  0
VERTEX
  5
1e3
  8
Layer_1
  10
78.387596
  20
199.65656
  0
VERTEX
  5
1e4
  8
Layer_1
  10
78.303528
  20
199.42688
  0
VERTEX
  5
1e5
  8
Layer_1
  10
78.073029
  20
199.00221
  0
VERTEX
  5
1e6
  8
Layer_1
  10
77.767761
  20
198.63222
  0
VERTEX
  5
1e7
  8
Layer_1
  10
77.397766
  20
198.32693
  0
VERTEX
  5
1e8
  8
Layer_1
  10
76.973106
  20
198.09644
  0
VERTEX
  5
1e9
  8
Layer_1
  10
76.743423
  20
198.01237
  0
VERTEX
  5
1ea
  8
Layer_1
  10
76.50383
  20
197.95078
  0
VERTEX
  5
1eb
  8
Layer_1
  10
76.2556
  20
197.91289
  0
VERTEX
  5
1ec
  8
Layer_1
  10
75.999992
  20
197.89998
  0
VERTEX
  5
1ed
  8
Layer_1
  10
75.744385
  20
197.91289
  0
VERTEX
  5
1ee
  8
Layer_1
  10
75.496155
  20
197.95078
  0
VERTEX
  5
1ef
  8
Layer_1
  10
75.256561
  20
198.01237
  0
VERTEX
  5
1f0
  8
Layer_1
  10
75.026878
  20
198.09644
  0
VERTEX
  5
1f1
  8
Layer_1
  10
74.602219
  20
198.32693
  0
VERTEX
  5
1f2
  8
Layer_1
  10
74.232224
  20
198.63222
  0
VERTEX
  5
1f3
  8
Layer_1
  10
73.926956
  20
199.00221
  0
VERTEX
  5
1f4
  8
Layer_1
  10
73.696457
  20
199.42688
  0
VERTEX
  5
1f5
  8
Layer_1
  10
73.612389
  20
199.65656
  0
VERTEX
  5
1f6
  8
Layer_1
  10
73.550789
  20
199.89615
  0
VERTEX
  5
1f7
  8
Layer_1
  10
73.512901
  20
200.14436
  0
VERTEX
  5
1f8
  8
Layer_1
  10
73.499992
  20
200.39998
  0
VERTEX
  5
1f9
  8
Layer_1
  10
73.512901
  20
200.65559
  0
VERTEX
  5
1fa
  8
Layer_1
  10
73.550789
  20
200.90381
  0
VERTEX
  5
1fb
  8
Layer_1
  10
73.612389
  20
201.1434
  0
VERTEX
  5
1fc
  8
Layer_1
  10
73.696457
  20
201.37308
  0
VERTEX
  5
1fd
  8
Layer_1
  10
73.926956
  20
201.79774
  0
VERTEX
  5
1fe
  8
Layer_1
  10
74.232224
  20
202.16774
  0
VERTEX
  5
1ff
  8
Layer_1
  10
74.602219
  20
202.47302
  0
VERTEX
  5
200
  8
Layer_1
  10
75.026878
  20
202.70352
  0
VERTEX
  5
201
  8
Layer_1
  10
75.256561
  20
202.78758
  0
VERTEX
  5
202
  8
Layer_1
  10
75.496155
  20
202.84918
  0
VERTEX
  5
203
  8
Layer_1
  10
75.744385
  20
202.88707
  0
VERTEX
  5
204
  8
Layer_1
  10
75.999992
  20
202.89998
  0
VERTEX
  5
205
  8
Layer_1
  10
76.2556
  20
202.88707
  0
VERTEX
  5
206
  8
Layer_1
  10
76.50383
  20
202.84918
  0
VERTEX
  5
207
  8
Layer_1
  10
76.743423
  20
202.78758
  0
VERTEX
  5
208
  8
Layer_1
  10
76.973106
  20
202.70352
  0
VERTEX
  5
209
  8
Layer_1
  10
77.397766
  20
202.47302
  0
VERTEX
  5
20a
  8
Layer_1
  10
77.767761
  20
202.16774
  0
VERTEX
  5
20b
  8
Layer_1
  10
78.073029
  20
201.79774
  0
VERTEX
  5
20c
  8
Layer_1
  10
78.303528
  20
201.37308
  0
VERTEX
  5
20d
  8
Layer_1
  10
78.387596
  20
201.1434
  0
VERTEX
  5
20e
  8
Layer_1
  10
78.449196
  20
200.90381
  0
VERTEX
  5
20f
  8
Layer_1
  10
78.487083
  20
200.65559
  0
VERTEX
  5
210
  8
Layer_1
  10
78.499992
  20
200.39998
  0
SEQEND
  0
POLYLINE
  5
212
  8
Layer_1
  62
138
  70
1
  66
1
  10
0
  20
0
  30
0
  0
VERTEX
  5
212
  8
Layer_1
  10
76.949989
  20
200.39998
  0
VERTEX
  5
213
  8
Layer_1
  10
76.930687
  20
200.20853
  0
VERTEX
  5
214
  8
Layer_1
  10
76.875336
  20
200.0302
  0
VERTEX
  5
215
  8
Layer_1
  10
76.78775
  20
199.86882
  0
VERTEX
  5
216
  8
Layer_1
  10
76.671745
  20
199.72823
  0
VERTEX
  5
217
  8
Layer_1
  10
76.531143
  20
199.61223
  0
VERTEX
  5
218
  8
Layer_1
  10
76.369774
  20
199.52463
  0
VERTEX
  5
219
  8
Layer_1
  10
76.191452
  20
199.46928
  0
VERTEX
  5
21a
  8
Layer_1
  10
75.999992
  20
199.44998
  0
VERTEX
  5
21b
  8
Layer_1
  10
75.808533
  20
199.46928
  0
VERTEX
  5
21c
  8
Layer_1
  10
75.630211
  20
199.52463
  0
VERTEX
  5
21d
  8
Layer_1
  10
75.468842
  20
199.61223
  0
VERTEX
  5
21e
  8
Layer_1
  10
75.328239
  20
199.72823
  0
VERTEX
  5
21f
  8
Layer_1
  10
75.212234
  20
199.86882
  0
VERTEX
  5
220
  8
Layer_1
  10
75.124649
  20
200.0302
  0
VERTEX
  5
221
  8
Layer_1
  10
75.069298
  20
200.20853
  0
VERTEX
  5
222
  8
Layer_1
  10
75.049995
  20
200.39998
  0
VERTEX
  5
223
  8
Layer_1
  10
75.069298
  20
200.59143
  0
VERTEX
  5
224
  8
Layer_1
  10
75.124649
  20
200.76976
  0
VERTEX
  5
225
  8
Layer_1
  10
75.212234
  20
200.93114
  0
VERTEX
  5
226
  8
Layer_1
  10
75.328239
  20
201.07173
  0
VERTEX
  5
227
  8
Layer_1
  10
75.468842
  20
201.18773
  0
VERTEX
  5
228
  8
Layer_1
  10
75.630211
  20
201.27533
  0
VERTEX
  5
229
  8
Layer_1
  10
75.808533
  20
201.33067
  0
VERTEX
  5
22a
  8
Layer_1
  10
75.999992
  20
201.34998
  0
VERTEX
  5
22b
  8
Layer_1
  10
76.191452
  20
201.33067
  0
VERTEX
  5
22c
  8
Layer_1
  10
76.369774
  20
201.27533
  0
VERTEX
  5
22d
  8
Layer_1
  10
76.531143
  20
201.18773
  0
VERTEX
  5
22e
  8
Layer_1
  10
76.671745
  20
201.07173
  0
VERTEX
  5
22f
  8
Layer_1
  10
76.78775
  20
200.93114
  0
VERTEX
  5
230
  8
Layer_1
  10
76.875336
  20
200.76976
  0
VERTEX
  5
231
  8
Layer_1
  10
76.930687
  20
200.59143
  0
VERTEX
  5
232
  8
Layer_1
  10
76.949989
  20
200.39998
  0
SEQEND
  0
POLYLINE
  5
234
  8
Layer_1
  62
138
  70
1
  66
1
  10
0
  20
0
  30
0
  0
VERTEX
  5
234
  8
Layer_1
  10
78.499992
  20
258.79999
  0
VERTEX
  5
235
  8
Layer_1
  10
78.487083
  20
258.54437
  0
VERTEX
  5
236
  8
Layer_1
  10
78.449196
  20
258.29614
  0
VERTEX
  5
237
  8
Layer_1
  10
78.387596
  20
258.05658
  0
VERTEX
  5
238
  8
Layer_1
  10
78.303528
  20
257.82687
  0
VERTEX
  5
239
  8
Layer_1
  10
78.073029
  20
257.40222
  0
VERTEX
  5
23a
  8
Layer_1
  10
77.767761
  20
257.03223
  0
VERTEX
  5
23b
  8
Layer_1
  10
77.397766
  20
256.72696
  0
VERTEX
  5
23c
  8
Layer_1
  10
76.973106
  20
256.49646
  0
VERTEX
  5
23d
  8
Layer_1
  10
76.743423
  20
256.41238
  0
VERTEX
  5
23e
  8
Layer_1
  10
76.50383
  20
256.35077
  0
VERTEX
  5
23f
  8
Layer_1
  10
76.2556
  20
256.3129
  0
VERTEX
  5
240
  8
Layer_1
  10
75.999992
  20
256.29999
  0
VERTEX
  5
241
  8
Layer_1
  10
75.744385
  20
256.3129
  0
VERTEX
  5
242
  8
Layer_1
  10
75.496155
  20
256.35077
  0
VERTEX
  5
243
  8
Layer_1
  10
75.256561
  20
256.41238
  0
VERTEX
  5
244
  8
Layer_1
  10
75.026878
  20
256.49646
  0
VERTEX
  5
245
  8
Layer_1
  10
74.602219
  20
256.72696
  0
VERTEX
  5
246
  8
Layer_1
  10
74.232224
  20
257.03223
  0
VERTEX
  5
247
  8
Layer_1
  10
73.926956
  20
257.40222
  0
VERTEX
  5
248
  8
Layer_1
  10
73.696457
  20
257.82687
  0
VERTEX
  5
249
  8
Layer_1
  10
73.612389
  20
258.05658
  0
VERTEX
  5
24a
  8
Layer_1
  10
73.550789
  20
258.29614
  0
VERTEX
  5
24b
  8
Layer_1
  10
73.512901
  20
258.54437
  0
VERTEX
  5
24c
  8
Layer_1
  10
73.499992
  20
258.79999
  0
VERTEX
  5
24d
  8
Layer_1
  10
73.512901
  20
259.0556
  0
VERTEX
  5
24e
  8
Layer_1
  10
73.550789
  20
259.30383
  0
VERTEX
  5
24f
  8
Layer_1
  10
73.612389
  20
259.54343
  0
VERTEX
  5
250
  8
Layer_1
  10
73.696457
  20
259.7731
  0
VERTEX
  5
251
  8
Layer_1
  10
73.926956
  20
260.19775
  0
VERTEX
  5
252
  8
Layer_1
  10
74.232224
  20
260.56775
  0
VERTEX
  5
253
  8
Layer_1
  10
74.602219
  20
260.87305
  0
VERTEX
  5
254
  8
Layer_1
  10
75.026878
  20
261.10352
  0
VERTEX
  5
255
  8
Layer_1
  10
75.256561
  20
261.18759
  0
VERTEX
  5
256
  8
Layer_1
  10
75.496155
  20
261.24921
  0
VERTEX
  5
257
  8
Layer_1
  10
75.744385
  20
261.28708
  0
VERTEX
  5
258
  8
Layer_1
  10
75.999992
  20
261.29999
  0
VERTEX
  5
259
  8
Layer_1
  10
76.2556
  20
261.28708
  0
VERTEX
  5
25a
  8
Layer_1
  10
76.50383
  20
261.24921
  0
VERTEX
  5
25b
  8
Layer_1
  10
76.743423
  20
261.18759
  0
VERTEX
  5
25c
  8
Layer_1
  10
76.973106
  20
261.10352
  0
VERTEX
  5
25d
  8
Layer_1
  10
77.397766
  20
260.87305
  0
VERTEX
  5
25e
  8
Layer_1
  10
77.767761
  20
260.56775
  0
VERTEX
  5
25f
  8
Layer_1
  10
78.073029
  20
260.19775
  0
VERTEX
  5
260
  8
Layer_1
  10
78.303528
  20
259.7731
  0
VERTEX
  5
261
  8
Layer_1
  10
78.387596
  20
259.54343
  0
VERTEX
  5
262
  8
Layer_1
  10
78.449196
  20
259.30383
  0
VERTEX
  5
263
  8
Layer_1
  10
78.487083
  20
259.0556
  0
VERTEX
  5
264
  8
Layer_1
  10
78.499992
  20
258.79999
  0
SEQEND
  0
POLYLINE
  5
266
  8
Layer_1
  62
138
  70
1
  66
1
  10
0
  20
0
  30
0
  0
VERTEX
  5
266
  8
Layer_1
  10
76.949989
  20
258.79999
  0
VERTEX
  5
267
  8
Layer_1
  10
76.930687
  20
258.60852
  0
VERTEX
  5
268
  8
Layer_1
  10
76.875336
  20
258.43021
  0
VERTEX
  5
269
  8
Layer_1
  10
76.78775
  20
258.26883
  0
VERTEX
  5
26a
  8
Layer_1
  10
76.671745
  20
258.12823
  0
VERTEX
  5
26b
  8
Layer_1
  10
76.531143
  20
258.01224
  0
VERTEX
  5
26c
  8
Layer_1
  10
76.369774
  20
257.92465
  0
VERTEX
  5
26d
  8
Layer_1
  10
76.191452
  20
257.86929
  0
VERTEX
  5
26e
  8
Layer_1
  10
75.999992
  20
257.84998
  0
VERTEX
  5
26f
  8
Layer_1
  10
75.808533
  20
257.86929
  0
VERTEX
  5
270
  8
Layer_1
  10
75.630211
  20
257.92465
  0
VERTEX
  5
271
  8
Layer_1
  10
75.468842
  20
258.01224
  0
VERTEX
  5
272
  8
Layer_1
  10
75.328239
  20
258.12823
  0
VERTEX
  5
273
  8
Layer_1
  10
75.212234
  20
258.26883
  0
VERTEX
  5
274
  8
Layer_1
  10
75.124649
  20
258.43021
  0
VERTEX
  5
275
  8
Layer_1
  10
75.069298
  20
258.60852
  0
VERTEX
  5
276
  8
Layer_1
  10
75.049995
  20
258.79999
  0
VERTEX
  5
277
  8
Layer_1
  10
75.069298
  20
258.99146
  0
VERTEX
  5
278
  8
Layer_1
  10
75.124649
  20
259.16977
  0
VERTEX
  5
279
  8
Layer_1
  10
75.212234
  20
259.33115
  0
VERTEX
  5
27a
  8
Layer_1
  10
75.328239
  20
259.47174
  0
VERTEX
  5
27b
  8
Layer_1
  10
75.468842
  20
259.58774
  0
VERTEX
  5
27c
  8
Layer_1
  10
75.630211
  20
259.67532
  0
VERTEX
  5
27d
  8
Layer_1
  10
75.808533
  20
259.73068
  0
VERTEX
  5
27e
  8
Layer_1
  10
75.999992
  20
259.75
  0
VERTEX
  5
27f
  8
Layer_1
  10
76.191452
  20
259.73068
  0
VERTEX
  5
280
  8
Layer_1
  10
76.369774
  20
259.67532
  0
VERTEX
  5
281
  8
Layer_1
  10
76.531143
  20
259.58774
  0
VERTEX
  5
282
  8
Layer_1
  10
76.671745
  20
259.47174
  0
VERTEX
  5
283
  8
Layer_1
  10
76.78775
  20
259.33115
  0
VERTEX
  5
284
  8
Layer_1
  10
76.875336
  20
259.16977
  0
VERTEX
  5
285
  8
Layer_1
  10
76.930687
  20
258.99146
  0
VERTEX
  5
286
  8
Layer_1
  10
76.949989
  20
258.79999
  0
SEQEND
  0
POLYLINE
  5
288
  8
Layer_1
  62
138
  70
1
  66
1
  10
0
  20
0
  30
0
  0
VERTEX
  5
288
  8
Layer_1
  10
22.499992
  20
258.79999
  0
VERTEX
  5
289
  8
Layer_1
  10
22.487085
  20
258.54437
  0
VERTEX
  5
28a
  8
Layer_1
  10
22.449202
  20
258.29614
  0
VERTEX
  5
28b
  8
Layer_1
  10
22.387596
  20
258.05658
  0
VERTEX
  5
28c
  8
Layer_1
  10
22.30353
  20
257.82687
  0
VERTEX
  5
28d
  8
Layer_1
  10
22.073032
  20
257.40222
  0
VERTEX
  5
28e
  8
Layer_1
  10
21.767761
  20
257.03223
  0
VERTEX
  5
28f
  8
Layer_1
  10
21.397768
  20
256.72696
  0
VERTEX
  5
290
  8
Layer_1
  10
20.973106
  20
256.49646
  0
VERTEX
  5
291
  8
Layer_1
  10
20.743418
  20
256.41238
  0
VERTEX
  5
292
  8
Layer_1
  10
20.50383
  20
256.35077
  0
VERTEX
  5
293
  8
Layer_1
  10
20.255602
  20
256.3129
  0
VERTEX
  5
294
  8
Layer_1
  10
19.999992
  20
256.29999
  0
VERTEX
  5
295
  8
Layer_1
  10
19.744383
  20
256.3129
  0
VERTEX
  5
296
  8
Layer_1
  10
19.496155
  20
256.35077
  0
VERTEX
  5
297
  8
Layer_1
  10
19.256567
  20
256.41238
  0
VERTEX
  5
298
  8
Layer_1
  10
19.026878
  20
256.49646
  0
VERTEX
  5
299
  8
Layer_1
  10
18.602217
  20
256.72696
  0
VERTEX
  5
29a
  8
Layer_1
  10
18.232224
  20
257.03223
  0
VERTEX
  5
29b
  8
Layer_1
  10
17.926952
  20
257.40222
  0
VERTEX
  5
29c
  8
Layer_1
  10
17.696455
  20
257.82687
  0
VERTEX
  5
29d
  8
Layer_1
  10
17.612389
  20
258.05658
  0
VERTEX
  5
29e
  8
Layer_1
  10
17.550783
  20
258.29614
  0
VERTEX
  5
29f
  8
Layer_1
  10
17.512899
  20
258.54437
  0
VERTEX
  5
2a0
  8
Layer_1
  10
17.499992
  20
258.79999
  0
VERTEX
  5
2a1
  8
Layer_1
  10
17.512899
  20
259.0556
  0
VERTEX
  5
2a2
  8
Layer_1
  10
17.550783
  20
259.30383
  0
VERTEX
  5
2a3
  8
Layer_1
  10
17.612389
  20
259.54343
  0
VERTEX
  5
2a4
  8
Layer_1
  10
17.696455
  20
259.7731
  0
VERTEX
  5
2a5
  8
Layer_1
  10
17.926952
  20
260.19775
  0
VERTEX
  5
2a6
  8
Layer_1
  10
18.232224
  20
260.56775
  0
VERTEX
  5
2a7
  8
Layer_1
  10
18.602217
  20
260.87305
  0
VERTEX
  5
2a8
  8
Layer_1
  10
19.026878
  20
261.10352
  0
VERTEX
  5
2a9
  8
Layer_1
  10
19.256567
  20
261.18759
  0
VERTEX
  5
2aa
  8
Layer_1
  10
19.496155
  20
261.24921
  0
VERTEX
  5
2ab
  8
Layer_1
  10
19.744383
  20
261.28708
  0
VERTEX
  5
2ac
  8
Layer_1
  10
19.999992
  20
261.29999
  0
VERTEX
  5
2ad
  8
Layer_1
  10
20.255602
  20
261.28708
  0
VERTEX
  5
2ae
  8
Layer_1
  10
20.50383
  20
261.24921
  0
VERTEX
  5
2af
  8
Layer_1
  10
20.743418
  20
261.18759
  0
VERTEX
  5
2b0
  8
Layer_1
  10
20.973106
  20
261.10352
  0
VERTEX
  5
2b1
  8
Layer_1
  10
21.397768
  20
260.87305
  0
VERTEX
  5
2b2
  8
Layer_1
  10
21.767761
  20
260.56775
  0
VERTEX
  5
2b3
  8
Layer_1
  10
22.073032
  20
260.19775
  0
VERTEX
  5
2b4
  8
Layer_1
  10
22.30353
  20
259.7731
  0
VERTEX
  5
2b5
  8
Layer_1
  10
22.387596
  20
259.54343
  0
VERTEX
  5
2b6
  8
Layer_1
  10
22.449202
  20
259.30383
  0
VERTEX
  5
2b7
  8
Layer_1
  10
22.487085
  20
259.0556
  0
VERTEX
  5
2b8
  8
Layer_1
  10
22.499992
  20
258.79999
  0
SEQEND
  0
POLYLINE
  5
2ba
  8
Layer_1
  62
138
  70
1
  66
1
  10
0
  20
0
  30
0
  0
VERTEX
  5
2ba
  8
Layer_1
  10
20.949993
  20
258.79999
  0
VERTEX
  5
2bb
  8
Layer_1
  10
20.930693
  20
258.60852
  0
VERTEX
  5
2bc
  8
Layer_1
  10
20.875338
  20
258.43021
  0
VERTEX
  5
2bd
  8
Layer_1
  10
20.787748
  20
258.26883
  0
VERTEX
  5
2be
  8
Layer_1
  10
20.671745
  20
258.12823
  0
VERTEX
  5
2bf
  8
Layer_1
  10
20.531147
  20
258.01224
  0
VERTEX
  5
2c0
  8
Layer_1
  10
20.369776
  20
257.92465
  0
VERTEX
  5
2c1
  8
Layer_1
  10
20.19145
  20
257.86929
  0
VERTEX
  5
2c2
  8
Layer_1
  10
19.999992
  20
257.84998
  0
VERTEX
  5
2c3
  8
Layer_1
  10
19.808535
  20
257.86929
  0
VERTEX
  5
2c4
  8
Layer_1
  10
19.630209
  20
257.92465
  0
VERTEX
  5
2c5
  8
Layer_1
  10
19.468838
  20
258.01224
  0
VERTEX
  5
2c6
  8
Layer_1
  10
19.328239
  20
258.12823
  0
VERTEX
  5
2c7
  8
Layer_1
  10
19.212236
  20
258.26883
  0
VERTEX
  5
2c8
  8
Layer_1
  10
19.124647
  20
258.43021
  0
VERTEX
  5
2c9
  8
Layer_1
  10
19.069292
  20
258.60852
  0
VERTEX
  5
2ca
  8
Layer_1
  10
19.049992
  20
258.79999
  0
VERTEX
  5
2cb
  8
Layer_1
  10
19.069292
  20
258.99146
  0
VERTEX
  5
2cc
  8
Layer_1
  10
19.124647
  20
259.16977
  0
VERTEX
  5
2cd
  8
Layer_1
  10
19.212236
  20
259.33115
  0
VERTEX
  5
2ce
  8
Layer_1
  10
19.328239
  20
259.47174
  0
VERTEX
  5
2cf
  8
Layer_1
  10
19.468838
  20
259.58774
  0
VERTEX
  5
2d0
  8
Layer_1
  10
19.630209
  20
259.67532
  0
VERTEX
  5
2d1
  8
Layer_1
  10
19.808535
  20
259.73068
  0
VERTEX
  5
2d2
  8
Layer_1
  10
19.999992
  20
259.75
  0
VERTEX
  5
2d3
  8
Layer_1
  10
20.19145
  20
259.73068
  0
VERTEX
  5
2d4
  8
Layer_1
  10
20.369776
  20
259.67532
  0
VERTEX
  5
2d5
  8
Layer_1
  10
20.531147
  20
259.58774
  0
VERTEX
  5
2d6
  8
Layer_1
  10
20.671745
  20
259.47174
  0
VERTEX
  5
2d7
  8
Layer_1
  10
20.787748
  20
259.33115
  0
VERTEX
  5
2d8
  8
Layer_1
  10
20.875338
  20
259.16977
  0
VERTEX
  5
2d9
  8
Layer_1
  10
20.930693
  20
258.99146
  0
VERTEX
  5
2da
  8
Layer_1
  10
20.949993
  20
258.79999
  0
SEQEND
  0
POLYLINE
  5
2dc
  8
Layer_0
  62
0
  70
1
  66
1
  10
0
  20
0
  30
0
  0
VERTEX
  5
2dc
  8
Layer_0
  10
77.5
  20
258.79999
  0
VERTEX
  5
2dd
  8
Layer_0
  10
77.469521
  20
258.49768
  0
VERTEX
  5
2de
  8
Layer_0
  10
77.382118
  20
258.21613
  0
VERTEX
  5
2df
  8
Layer_0
  10
77.24382
  20
257.96133
  0
VERTEX
  5
2e0
  8
Layer_0
  10
77.060661
  20
257.73932
  0
VERTEX
  5
2e1
  8
Layer_0
  10
76.838669
  20
257.55615
  0
VERTEX
  5
2e2
  8
Layer_0
  10
76.58387
  20
257.41788
  0
VERTEX
  5
2e3
  8
Layer_0
  10
76.302299
  20
257.33047
  0
VERTEX
  5
2e4
  8
Layer_0
  10
76
  20
257.29999
  0
VERTEX
  5
2e5
  8
Layer_0
  10
75.697701
  20
257.33047
  0
VERTEX
  5
2e6
  8
Layer_0
  10
75.41613
  20
257.41788
  0
VERTEX
  5
2e7
  8
Layer_0
  10
75.161331
  20
257.55615
  0
VERTEX
  5
2e8
  8
Layer_0
  10
74.939339
  20
257.73932
  0
VERTEX
  5
2e9
  8
Layer_0
  10
74.75618
  20
257.96133
  0
VERTEX
  5
2ea
  8
Layer_0
  10
74.617882
  20
258.21613
  0
VERTEX
  5
2eb
  8
Layer_0
  10
74.530479
  20
258.49768
  0
VERTEX
  5
2ec
  8
Layer_0
  10
74.5
  20
258.79999
  0
VERTEX
  5
2ed
  8
Layer_0
  10
74.530479
  20
259.10229
  0
VERTEX
  5
2ee
  8
Layer_0
  10
74.617882
  20
259.38385
  0
VERTEX
  5
2ef
  8
Layer_0
  10
74.75618
  20
259.63867
  0
VERTEX
  5
2f0
  8
Layer_0
  10
74.939339
  20
259.86066
  0
VERTEX
  5
2f1
  8
Layer_0
  10
75.161331
  20
260.04382
  0
VERTEX
  5
2f2
  8
Layer_0
  10
75.41613
  20
260.18213
  0
VERTEX
  5
2f3
  8
Layer_0
  10
75.697701
  20
260.26953
  0
VERTEX
  5
2f4
  8
Layer_0
  10
76
  20
260.29999
  0
VERTEX
  5
2f5
  8
Layer_0
  10
76.302299
  20
260.26953
  0
VERTEX
  5
2f6
  8
Layer_0
  10
76.58387
  20
260.18213
  0
VERTEX
  5
2f7
  8
Layer_0
  10
76.838669
  20
260.04382
  0
VERTEX
  5
2f8
  8
Layer_0
  10
77.060661
  20
259.86066
  0
VERTEX
  5
2f9
  8
Layer_0
  10
77.24382
  20
259.63867
  0
VERTEX
  5
2fa
  8
Layer_0
  10
77.382118
  20
259.38385
  0
VERTEX
  5
2fb
  8
Layer_0
  10
77.469521
  20
259.10229
  0
VERTEX
  5
2fc
  8
Layer_0
  10
77.5
  20
258.79999
  0
SEQEND
  0
POLYLINE
  5
2fe
  8
Layer_0
  62
0
  70
1
  66
1
  10
0
  20
0
  30
0
  0
VERTEX
  5
2fe
  8
Layer_0
  10
77.5
  20
200.39998
  0
VERTEX
  5
2ff
  8
Layer_0
  10
77.469521
  20
200.09769
  0
VERTEX
  5
300
  8
Layer_0
  10
77.382118
  20
199.8161
  0
VERTEX
  5
301
  8
Layer_0
  10
77.24382
  20
199.56131
  0
VERTEX
  5
302
  8
Layer_0
  10
77.060661
  20
199.33932
  0
VERTEX
  5
303
  8
Layer_0
  10
76.838669
  20
199.15616
  0
VERTEX
  5
304
  8
Layer_0
  10
76.58387
  20
199.01785
  0
VERTEX
  5
305
  8
Layer_0
  10
76.302299
  20
198.93045
  0
VERTEX
  5
306
  8
Layer_0
  10
76
  20
198.89998
  0
VERTEX
  5
307
  8
Layer_0
  10
75.697701
  20
198.93045
  0
VERTEX
  5
308
  8
Layer_0
  10
75.41613
  20
199.01785
  0
VERTEX
  5
309
  8
Layer_0
  10
75.161331
  20
199.15616
  0
VERTEX
  5
30a
  8
Layer_0
  10
74.939339
  20
199.33932
  0
VERTEX
  5
30b
  8
Layer_0
  10
74.75618
  20
199.56131
  0
VERTEX
  5
30c
  8
Layer_0
  10
74.617882
  20
199.8161
  0
VERTEX
  5
30d
  8
Layer_0
  10
74.530479
  20
200.09769
  0
VERTEX
  5
30e
  8
Layer_0
  10
74.5
  20
200.39998
  0
VERTEX
  5
30f
  8
Layer_0
  10
74.530479
  20
200.70227
  0
VERTEX
  5
310
  8
Layer_0
  10
74.617882
  20
200.98386
  0
VERTEX
  5
311
  8
Layer_0
  10
74.75618
  20
201.23865
  0
VERTEX
  5
312
  8
Layer_0
  10
74.939339
  20
201.46063
  0
VERTEX
  5
313
  8
Layer_0
  10
75.161331
  20
201.6438
  0
VERTEX
  5
314
  8
Layer_0
  10
75.41613
  20
201.7821
  0
VERTEX
  5
315
  8
Layer_0
  10
75.697701
  20
201.86951
  0
VERTEX
  5
316
  8
Layer_0
  10
76
  20
201.89998
  0
VERTEX
  5
317
  8
Layer_0
  10
76.302299
  20
201.86951
  0
VERTEX
  5
318
  8
Layer_0
  10
76.58387
  20
201.7821
  0
VERTEX
  5
319
  8
Layer_0
  10
76.838669
  20
201.6438
  0
VERTEX
  5
31a
  8
Layer_0
  10
77.060661
  20
201.46063
  0
VERTEX
  5
31b
  8
Layer_0
  10
77.24382
  20
201.23865
  0
VERTEX
  5
31c
  8
Layer_0
  10
77.382118
  20
200.98386
  0
VERTEX
  5
31d
  8
Layer_0
  10
77.469521
  20
200.70227
  0
VERTEX
  5
31e
  8
Layer_0
  10
77.5
  20
200.39998
  0
SEQEND
  0
POLYLINE
  5
320
  8
Layer_0
  62
0
  70
1
  66
1
  10
0
  20
0
  30
0
  0
VERTEX
  5
320
  8
Layer_0
  10
21.5
  20
200.39998
  0
VERTEX
  5
321
  8
Layer_0
  10
21.469524
  20
200.09769
  0
VERTEX
  5
322
  8
Layer_0
  10
21.382122
  20
199.8161
  0
VERTEX
  5
323
  8
Layer_0
  10
21.243824
  20
199.56131
  0
VERTEX
  5
324
  8
Layer_0
  10
21.060661
  20
199.33932
  0
VERTEX
  5
325
  8
Layer_0
  10
20.838665
  20
199.15616
  0
VERTEX
  5
326
  8
Layer_0
  10
20.583868
  20
199.01785
  0
VERTEX
  5
327
  8
Layer_0
  10
20.302303
  20
198.93045
  0
VERTEX
  5
328
  8
Layer_0
  10
20
  20
198.89998
  0
VERTEX
  5
329
  8
Layer_0
  10
19.697697
  20
198.93045
  0
VERTEX
  5
32a
  8
Layer_0
  10
19.416132
  20
199.01785
  0
VERTEX
  5
32b
  8
Layer_0
  10
19.161335
  20
199.15616
  0
VERTEX
  5
32c
  8
Layer_0
  10
18.939339
  20
199.33932
  0
VERTEX
  5
32d
  8
Layer_0
  10
18.756176
  20
199.56131
  0
VERTEX
  5
32e
  8
Layer_0
  10
18.617878
  20
199.8161
  0
VERTEX
  5
32f
  8
Layer_0
  10
18.530476
  20
200.09769
  0
VERTEX
  5
330
  8
Layer_0
  10
18.5
  20
200.39998
  0
VERTEX
  5
331
  8
Layer_0
  10
18.530476
  20
200.70227
  0
VERTEX
  5
332
  8
Layer_0
  10
18.617878
  20
200.98386
  0
VERTEX
  5
333
  8
Layer_0
  10
18.756176
  20
201.23865
  0
VERTEX
  5
334
  8
Layer_0
  10
18.939339
  20
201.46063
  0
VERTEX
  5
335
  8
Layer_0
  10
19.161335
  20
201.6438
  0
VERTEX
  5
336
  8
Layer_0
  10
19.416132
  20
201.7821
  0
VERTEX
  5
337
  8
Layer_0
  10
19.697697
  20
201.86951
  0
VERTEX
  5
338
  8
Layer_0
  10
20
  20
201.89998
  0
VERTEX
  5
339
  8
Layer_0
  10
20.302303
  20
201.86951
  0
VERTEX
  5
33a
  8
Layer_0
  10
20.583868
  20
201.7821
  0
VERTEX
  5
33b
  8
Layer_0
  10
20.838665
  20
201.6438
  0
VERTEX
  5
33c
  8
Layer_0
  10
21.060661
  20
201.46063
  0
VERTEX
  5
33d
  8
Layer_0
  10
21.243824
  20
201.23865
  0
VERTEX
  5
33e
  8
Layer_0
  10
21.382122
  20
200.98386
  0
VERTEX
  5
33f
  8
Layer_0
  10
21.469524
  20
200.70227
  0
VERTEX
  5
340
  8
Layer_0
  10
21.5
  20
200.39998
  0
SEQEND
  0
POLYLINE
  5
342
  8
Layer_0
  62
0
  70
1
  66
1
  10
0
  20
0
  30
0
  0
VERTEX
  5
342
  8
Layer_0
  10
21.5
  20
258.79999
  0
VERTEX
  5
343
  8
Layer_0
  10
21.469524
  20
258.49768
  0
VERTEX
  5
344
  8
Layer_0
  10
21.382122
  20
258.21613
  0
VERTEX
  5
345
  8
Layer_0
  10
21.243824
  20
257.96133
  0
VERTEX
  5
346
  8
Layer_0
  10
21.060661
  20
257.73932
  0
VERTEX
  5
347
  8
Layer_0
  10
20.838665
  20
257.55615
  0
VERTEX
  5
348
  8
Layer_0
  10
20.583868
  20
257.41788
  0
VERTEX
  5
349
  8
Layer_0
  10
20.302303
  20
257.33047
  0
VERTEX
  5
34a
  8
Layer_0
  10
20
  20
257.29999
  0
VERTEX
  5
34b
  8
Layer_0
  10
19.697697
  20
257.33047
  0
VERTEX
  5
34c
  8
Layer_0
  10
19.416132
  20
257.41788
  0
VERTEX
  5
34d
  8
Layer_0
  10
19.161335
  20
257.55615
  0
VERTEX
  5
34e
  8
Layer_0
  10
18.939339
  20
257.73932
  0
VERTEX
  5
34f
  8
Layer_0
  10
18.756176
  20
257.96133
  0
VERTEX
  5
350
  8
Layer_0
  10
18.617878
  20
258.21613
  0
VERTEX
  5
351
  8
Layer_0
  10
18.530476
  20
258.49768
  0
VERTEX
  5
352
  8
Layer_0
  10
18.5
  20
258.79999
  0
VERTEX
  5
353
  8
Layer_0
  10
18.530476
  20
259.10229
  0
VERTEX
  5
354
  8
Layer_0
  10
18.617878
  20
259.38385
  0
VERTEX
  5
355
  8
Layer_0
  10
18.756176
  20
259.63867
  0
VERTEX
  5
356
  8
Layer_0
  10
18.939339
  20
259.86066
  0
VERTEX
  5
357
  8
Layer_0
  10
19.161335
  20
260.04382
  0
VERTEX
  5
358
  8
Layer_0
  10
19.416132
  20
260.18213
  0
VERTEX
  5
359
  8
Layer_0
  10
19.697697
  20
260.26953
  0
VERTEX
  5
35a
  8
Layer_0
  10
20
  20
260.29999
  0
VERTEX
  5
35b
  8
Layer_0
  10
20.302303
  20
260.26953
  0
VERTEX
  5
35c
  8
Layer_0
  10
20.583868
  20
260.18213
  0
VERTEX
  5
35d
  8
Layer_0
  10
20.838665
  20
260.04382
  0
VERTEX
  5
35e
  8
Layer_0
  10
21.060661
  20
259.86066
  0
VERTEX
  5
35f
  8
Layer_0
  10
21.243824
  20
259.63867
  0
VERTEX
  5
360
  8
Layer_0
  10
21.382122
  20
259.38385
  0
VERTEX
  5
361
  8
Layer_0
  10
21.469524
  20
259.10229
  0
VERTEX
  5
362
  8
Layer_0
  10
21.5
  20
258.79999
  0
SEQEND
  0
POLYLINE
  5
364
  8
Layer_0
  62
0
  66
1
  10
0
  20
0
  30
0
  0
VERTEX
  5
364
  8
Layer_0
  10
80
  20
258.79999
  0
VERTEX
  5
365
  8
Layer_0
  10
72
  20
258.79999
  0
SEQEND
  0
POLYLINE
  5
367
  8
Layer_0
  62
0
  66
1
  10
0
  20
0
  30
0
  0
VERTEX
  5
367
  8
Layer_0
  10
76
  20
262.79999
  0
VERTEX
  5
368
  8
Layer_0
  10
76
  20
254.79999
  0
SEQEND
  0
POLYLINE
  5
36a
  8
Layer_0
  62
0
  66
1
  10
0
  20
0
  30
0
  0
VERTEX
  5
36a
  8
Layer_0
  10
80
  20
200.39998
  0
VERTEX
  5
36b
  8
Layer_0
  10
72
  20
200.39998
  0
SEQEND
  0
POLYLINE
  5
36d
  8
Layer_0
  62
0
  66
1
  10
0
  20
0
  30
0
  0
VERTEX
  5
36d
  8
Layer_0
  10
76
  20
204.39998
  0
VERTEX
  5
36e
  8
Layer_0
  10
76
  20
196.39998
  0
SEQEND
  0
POLYLINE
  5
370
  8
Layer_0
  62
0
  66
1
  10
0
  20
0
  30
0
  0
VERTEX
  5
370
  8
Layer_0
  10
24
  20
200.39998
  0
VERTEX
  5
371
  8
Layer_0
  10
16
  20
200.39998
  0
SEQEND
  0
POLYLINE
  5
373
  8
Layer_0
  62
0
  66
1
  10
0
  20
0
  30
0
  0
VERTEX
  5
373
  8
Layer_0
  10
20
  20
204.39998
  0
VERTEX
  5
374
  8
Layer_0
  10
20
  20
196.39998
  0
SEQEND
  0
POLYLINE
  5
376
  8
Layer_0
  62
0
  66
1
  10
0
  20
0
  30
0
  0
VERTEX
  5
376
  8
Layer_0
  10
24
  20
258.79999
  0
VERTEX
  5
377
  8
Layer_0
  10
16
  20
258.79999
  0
SEQEND
  0
POLYLINE
  5
379
  8
Layer_0
  62
0
  66
1
  10
0
  20
0
  30
0
  0
VERTEX
  5
379
  8
Layer_0
  10
20
  20
262.79999
  0
VERTEX
  5
37a
  8
Layer_0
  10
20
  20
254.79999
  0
SEQEND
  0
POLYLINE
  5
37c
  8
Layer_0
  62
0
  70
1
  66
1
  10
0
  20
0
  30
0
  0
VERTEX
  5
37c
  8
Layer_0
  10
21.799992
  20
148.10001
  0
VERTEX
  5
37d
  8
Layer_0
  10
74.199989
  20
148.10001
  0
VERTEX
  5
37e
  8
Layer_0
  10
74.199989
  20
267.5
  0
VERTEX
  5
37f
  8
Layer_0
  10
74.193008
  20
267.49304
  0
VERTEX
  5
380
  8
Layer_0
  10
21.806973
  20
267.49304
  0
VERTEX
  5
381
  8
Layer_0
  10
21.799992
  20
267.5
  0
VERTEX
  5
382
  8
Layer_0
  10
21.799992
  20
148.10001
  0
SEQEND
  0
POLYLINE
  5
384
  8
Layer_0
  62
0
  66
1
  10
0
  20
0
  30
0
  0
VERTEX
  5
384
  8
Layer_0
  10
21.799992
  20
148.10001
  0
VERTEX
  5
385
  8
Layer_0
  10
21.806973
  20
148.10698
  0
VERTEX
  5
386
  8
Layer_0
  10
21.806973
  20
267.49304
  0
VERTEX
  5
387
  8
Layer_0
  10
74.199989
  20
267.5
  0
VERTEX
  5
388
  8
Layer_0
  10
74.193008
  20
148.10698
  0
VERTEX
  5
389
  8
Layer_0
  10
74.199989
  20
148.10001
  0
SEQEND
  0
POLYLINE
  5
38b
  8
Layer_0
  62
0
  66
1
  10
0
  20
0
  30
0
  0
VERTEX
  5
38b
  8
Layer_0
  10
21.806973
  20
148.10698
  0
VERTEX
  5
38c
  8
Layer_0
  10
74.193008
  20
148.10698
  0
SEQEND
  0
POLYLINE
  5
38e
  8
Layer_0
  62
0
  70
1
  66
1
  10
0
  20
0
  30
0
  0
VERTEX
  5
38e
  8
Layer_0
  10
23.5
  20
263.40002
  0
VERTEX
  5
38f
  8
Layer_0
  10
23.5
  20
269.90002
  0
VERTEX
  5
390
  8
Layer_0
  10
72.5
  20
269.90002
  0
VERTEX
  5
391
  8
Layer_0
  10
72.5
  20
263.40002
  0
VERTEX
  5
392
  8
Layer_0
  10
78.75
  20
263.40002
  0
VERTEX
  5
393
  8
Layer_0
  10
78.75
  20
181.89999
  0
VERTEX
  5
394
  8
Layer_0
  10
72.5
  20
181.89999
  0
VERTEX
  5
395
  8
Layer_0
  10
72.5
  20
175.40001
  0
VERTEX
  5
396
  8
Layer_0
  10
23.5
  20
175.40001
  0
VERTEX
  5
397
  8
Layer_0
  10
23.5
  20
181.89999
  0
VERTEX
  5
398
  8
Layer_0
  10
17.25
  20
181.89999
  0
VERTEX
  5
399
  8
Layer_0
  10
17.25
  20
263.40002
  0
VERTEX
  5
39a
  8
Layer_0
  10
23.5
  20
263.40002
  0
SEQEND
  0
ENDSEC
  0
EOF
